<svg width="200" height="200" viewBox="0 0 200 200" fill="none" xmlns="http://www.w3.org/2000/svg">
<path d="M105.194 129.429C108.07 125.395 112.719 123 117.674 123V123C126.138 123 133 129.862 133 138.326V160.559C133 172.953 122.953 183 110.559 183V183C92.3158 183 81.6965 162.387 92.2873 147.532L105.194 129.429Z" fill="url(#paint0_linear_1753_1356)"/>
<path d="M9.69089 100.645C8.31693 100.647 6.97458 100.233 5.83977 99.4587C4.70496 98.6842 3.83063 97.5848 3.33139 96.3048C2.83215 95.0247 2.73128 93.6237 3.04201 92.2853C3.35273 90.947 4.06056 89.7337 5.07271 88.8046L95.3863 5.78639C96.6488 4.62968 98.2995 3.98918 100.012 3.99171C101.724 3.99423 103.373 4.6396 104.632 5.80002L194.423 88.8182C195.08 89.4262 195.612 90.1577 195.986 90.971C196.361 91.7843 196.572 92.6634 196.607 93.5583C196.642 94.4531 196.501 95.346 196.191 96.1861C195.88 97.0262 195.408 97.7971 194.8 98.4546C194.192 99.1121 193.461 99.6434 192.647 100.018C191.834 100.393 190.955 100.604 190.06 100.639C189.165 100.674 188.272 100.532 187.432 100.222C186.592 99.9123 185.821 99.4398 185.164 98.8318L99.9863 20.0773L14.3045 98.8455C13.0481 100.005 11.4005 100.648 9.69089 100.645Z" fill="black"/>
<path d="M161.577 195.673H38.4228C29.65 195.673 22.5137 188.536 22.5137 179.764V105.832C22.5137 104.936 22.69 104.05 23.0327 103.223C23.3753 102.395 23.8775 101.644 24.5107 101.011C25.1438 100.378 25.8954 99.8753 26.7226 99.5327C27.5499 99.19 28.4365 99.0137 29.3319 99.0137C30.2272 99.0137 31.1138 99.19 31.9411 99.5327C32.7683 99.8753 33.5199 100.378 34.153 101.011C34.7862 101.644 35.2884 102.395 35.631 103.223C35.9737 104.05 36.15 104.936 36.15 105.832V179.764C36.15 180.366 36.3895 180.945 36.8157 181.371C37.2419 181.797 37.82 182.036 38.4228 182.036H161.577C162.827 182.036 163.85 181.014 163.85 179.764V105.832C163.85 104.024 164.568 102.289 165.847 101.011C167.126 99.732 168.86 99.0137 170.668 99.0137C172.477 99.0137 174.211 99.732 175.489 101.011C176.768 102.289 177.486 104.024 177.486 105.832V179.764C177.486 188.536 170.35 195.673 161.577 195.673Z" fill="black"/>
<path d="M116.636 195.673H83.359C74.5863 195.673 67.45 188.536 67.45 179.764V133.445C67.45 124.673 74.5863 117.536 83.359 117.536H116.636C125.409 117.536 132.545 124.673 132.545 133.445V179.759C132.542 183.978 130.865 188.023 127.882 191.006C124.899 193.99 120.855 195.668 116.636 195.673ZM83.359 131.173C82.7563 131.173 82.1782 131.412 81.752 131.838C81.3258 132.265 81.0863 132.843 81.0863 133.445V179.759C81.0863 180.362 81.3258 180.94 81.752 181.366C82.1782 181.792 82.7563 182.032 83.359 182.032H116.636C117.886 182.032 118.909 181.009 118.909 179.759V133.445C118.909 132.195 117.886 131.173 116.636 131.173H83.359Z" fill="black"/>
<defs>
<linearGradient id="paint0_linear_1753_1356" x1="81.0556" y1="152.72" x2="137.639" y2="166.706" gradientUnits="userSpaceOnUse">
<stop offset="0.09" stop-color="white"/>
<stop offset="0.53" stop-color="#9E70FA"/>
<stop offset="1" stop-color="#653EB3"/>
</linearGradient>
</defs>
</svg>
