<svg width="200" height="200" viewBox="0 0 200 200" fill="none" xmlns="http://www.w3.org/2000/svg">
<g clip-path="url(#clip0_1753_1348)">
<path fill-rule="evenodd" clip-rule="evenodd" d="M74.2983 19.1105C87.3149 12.9864 101.324 11.4827 114.78 14.5228C128.341 17.5869 141.378 25.288 151.945 37.2902C161.973 48.6806 165.802 64.3143 165.802 80.5C165.802 84.386 165.848 88.4732 165.896 92.6916C165.972 99.3651 166.052 106.367 165.957 113.419C165.803 124.864 165.183 135.615 163.455 143.754C161.748 151.794 159.362 156.551 156.219 160.302C152.91 164.249 148.495 167.44 141.772 172.053C130.086 180.071 114.649 186 101.187 186V198C117.705 198 135.47 190.93 148.561 181.948C155.079 177.475 160.885 173.416 165.416 168.01C170.112 162.407 173.184 155.707 175.193 146.247C177.181 136.885 177.801 125.136 177.956 113.581C178.052 106.451 177.97 99.0774 177.893 92.2458C177.846 88.0676 177.802 84.0923 177.802 80.5C177.802 62.6856 173.619 43.7481 160.952 29.3606C148.827 15.5891 133.612 6.47526 117.424 2.81781C101.32 -0.820739 84.5849 1.00903 69.1897 8.2522C53.7159 15.5324 40.2152 28.0057 30.6254 44.3075C27.7319 49.2262 26.0642 56.4394 24.9914 63.9602C23.8876 71.6988 23.31 80.6077 23.0207 89.4756C22.6049 102.219 22.7787 115.314 22.9075 125.016C22.9571 128.752 23 131.984 23 134.5H35C35 131.752 34.9548 128.353 34.9034 124.493C34.775 114.844 34.6082 102.314 35.0143 89.867C35.2972 81.1968 35.8553 72.7765 36.8712 65.6547C37.9181 58.315 39.3539 53.1366 40.9684 50.392C49.4272 36.0129 61.1712 25.2865 74.2983 19.1105Z" fill="#707070"/>
<path d="M112 191.5C112 196.194 106.627 200 100 200C93.3726 200 88 196.194 88 191.5C88 186.806 93.3726 183 100 183C106.627 183 112 186.806 112 191.5Z" fill="#707070"/>
<path fill-rule="evenodd" clip-rule="evenodd" d="M25.2411 74.0675C26.3644 74.1042 27.0579 74.1145 27.5726 74.0777L28.4274 86.0472C27.1921 86.1355 25.8855 86.095 24.8487 86.0611C24.7474 86.0578 24.6474 86.0544 24.5484 86.0512C23.5347 86.0176 22.6384 85.9878 21.7226 86.0051C19.7125 86.0431 18.2676 86.3135 17.1587 86.8943C15.5825 87.7198 12 90.6861 12 104.562C12 118.087 15.9644 121.005 17.7867 121.843C19.0766 122.436 20.6457 122.64 22.4682 122.591C23.366 122.567 24.232 122.487 25.128 122.395C25.2103 122.387 25.2985 122.378 25.3916 122.368C26.1191 122.292 27.1452 122.185 28 122.185V134.185C28.001 134.185 27.9635 134.185 27.8739 134.19C27.786 134.195 27.671 134.203 27.5197 134.217C27.2637 134.239 26.9879 134.267 26.6362 134.304C26.5455 134.313 26.4497 134.323 26.3479 134.333C25.4138 134.429 24.1669 134.55 22.7872 134.587C20.0547 134.66 16.4105 134.418 12.7737 132.746C4.74255 129.053 4.76837e-07 120.16 0 104.562C-4.76837e-07 89.3166 3.91746 80.2829 11.5913 76.2639C15.1074 74.4225 18.725 74.0596 21.4961 74.0073C22.7438 73.9837 23.9535 74.0243 24.9274 74.057C25.0349 74.0607 25.1396 74.0642 25.2411 74.0675Z" fill="#707070"/>
<path fill-rule="evenodd" clip-rule="evenodd" d="M174.759 74.0675C173.636 74.1042 172.942 74.1145 172.427 74.0777L171.573 86.0472C172.808 86.1355 174.114 86.095 175.151 86.0611C175.253 86.0578 175.353 86.0544 175.452 86.0512C176.465 86.0176 177.362 85.9878 178.277 86.0051C180.287 86.0431 181.732 86.3135 182.841 86.8943C184.417 87.7198 188 90.6861 188 104.562C188 118.087 184.036 121.005 182.213 121.843C180.923 122.436 179.354 122.64 177.532 122.591C176.634 122.567 175.768 122.487 174.872 122.395C174.79 122.387 174.701 122.378 174.608 122.368C173.881 122.292 172.855 122.185 172 122.185V134.185C171.999 134.185 172.037 134.185 172.126 134.19C172.214 134.195 172.329 134.203 172.48 134.217C172.736 134.239 173.012 134.267 173.364 134.304C173.455 134.313 173.55 134.323 173.652 134.333C174.586 134.429 175.833 134.55 177.213 134.587C179.945 134.66 183.59 134.418 187.226 132.746C195.257 129.053 200 120.16 200 104.562C200 89.3166 196.083 80.2829 188.409 76.2639C184.893 74.4225 181.275 74.0596 178.504 74.0073C177.256 73.9837 176.047 74.0243 175.073 74.057C174.965 74.0607 174.86 74.0642 174.759 74.0675Z" fill="#707070"/>
<path fill-rule="evenodd" clip-rule="evenodd" d="M92.9605 124.625C91.1115 121.906 87.4132 121.18 84.6718 123.008C81.9147 124.846 81.1696 128.571 83.0077 131.328L88 128C83.0077 131.328 83.0093 131.331 83.0108 131.333L83.014 131.338L83.0209 131.348L83.0365 131.371L83.0749 131.427C83.1037 131.469 83.1389 131.52 83.1806 131.578C83.2639 131.696 83.3733 131.845 83.5087 132.023C83.7792 132.378 84.1561 132.848 84.6406 133.393C85.6053 134.478 87.0215 135.891 88.9 137.3C92.675 140.131 98.407 143 106 143C113.593 143 119.325 140.131 123.1 137.3C124.979 135.891 126.395 134.478 127.359 133.393C127.844 132.848 128.221 132.378 128.491 132.023C128.627 131.845 128.736 131.696 128.819 131.578C128.861 131.52 128.896 131.469 128.925 131.427L128.964 131.371L128.979 131.348L128.986 131.338L128.989 131.333C128.991 131.331 128.992 131.328 124 128L128.992 131.328C130.83 128.571 130.085 124.846 127.328 123.008C124.587 121.18 120.889 121.906 119.04 124.625C119.029 124.64 118.998 124.683 118.946 124.751C118.842 124.888 118.656 125.121 118.391 125.42C117.855 126.022 117.022 126.859 115.9 127.7C113.675 129.369 110.407 131 106 131C101.593 131 98.325 129.369 96.1 127.7C94.9785 126.859 94.1448 126.022 93.6095 125.42C93.3439 125.121 93.1584 124.888 93.0539 124.751C93.0025 124.683 92.9714 124.64 92.9605 124.625Z" fill="#707070"/>
</g>
<defs>
<clipPath id="clip0_1753_1348">
<rect width="200" height="200" fill="white"/>
</clipPath>
</defs>
</svg>
