<svg width="200" height="200" viewBox="0 0 200 200" fill="none" xmlns="http://www.w3.org/2000/svg">
<path fill-rule="evenodd" clip-rule="evenodd" d="M134.892 19.2128C117.181 11.5638 97.448 9.94643 78.7286 14.6096C75.5131 15.4106 72.2571 13.4533 71.4562 10.2379C70.6552 7.02241 72.6125 3.76645 75.8279 2.96546C97.1 -2.33359 119.524 -0.495676 139.65 8.1964C159.775 16.8885 176.486 31.9531 187.213 51.072C197.939 70.191 202.085 92.3049 199.013 114.011C195.942 135.717 185.823 155.812 170.213 171.204C154.604 186.597 134.368 196.433 112.622 199.2C90.8746 201.967 68.821 197.511 49.8543 186.518C30.8876 175.525 16.0587 158.604 7.64961 138.359C-0.7595 118.113 -2.2829 95.6659 3.31382 74.4701C4.1598 71.2662 7.44288 69.3547 10.6468 70.2007C13.8507 71.0467 15.7621 74.3298 14.9162 77.5337C9.99104 96.186 11.3316 115.94 18.7317 133.756C26.1317 151.572 39.181 166.462 55.8718 176.136C72.5625 185.81 91.9697 189.731 111.107 187.296C130.244 184.861 148.051 176.205 161.788 162.66C175.524 149.115 184.429 131.431 187.132 112.33C189.835 93.2283 186.186 73.7681 176.747 56.9434C167.308 40.1187 152.602 26.8619 134.892 19.2128Z" fill="black"/>
<path fill-rule="evenodd" clip-rule="evenodd" d="M105 69C107.761 69 110 71.2386 110 74L110 96C110 98.7614 107.761 101 105 101C102.239 101 100 98.7614 100 96L100 74C100 71.2386 102.239 69 105 69Z" fill="black"/>
<path fill-rule="evenodd" clip-rule="evenodd" d="M135 69C137.761 69 140 71.2386 140 74L140 96C140 98.7614 137.761 101 135 101C132.239 101 130 98.7614 130 96L130 74C130 71.2386 132.239 69 135 69Z" fill="black"/>
<path d="M10 36.2842L26.4698 30.7943C29.4558 29.7989 31.799 27.4557 32.7943 24.4697L38.2843 7.99991L43.7742 24.4697C44.7695 27.4557 47.1127 29.7989 50.0988 30.7942L66.5685 36.2842L50.0988 41.7741C47.1127 42.7695 44.7696 45.1126 43.7742 48.0987L38.2843 64.5685L32.7943 48.0987C31.799 45.1126 29.4558 42.7695 26.4698 41.7741L10 36.2842Z" fill="#653EB3"/>
<path d="M166 135.5C166 148.893 159.046 161.738 146.669 171.209C134.292 180.679 117.504 186 100 186C82.4957 186 65.7084 180.679 53.331 171.209C40.9536 161.738 34 148.893 34 135.5L100 135.5H166Z" fill="url(#paint0_linear_1750_1283)"/>
<defs>
<linearGradient id="paint0_linear_1750_1283" x1="100" y1="135.5" x2="100" y2="186" gradientUnits="userSpaceOnUse">
<stop offset="0.0902344" stop-color="white"/>
<stop offset="0.530234" stop-color="#9E70FA"/>
<stop offset="1" stop-color="#653EB3"/>
</linearGradient>
</defs>
</svg>
