<svg width="33" height="33" viewBox="0 0 33 33" fill="none" xmlns="http://www.w3.org/2000/svg">
<path d="M7.87254 5.28525C7.87254 5.12115 7.93773 4.96377 8.05377 4.84773C8.1698 4.73169 8.32719 4.6665 8.49129 4.6665H24.2436C24.4077 4.6665 24.5651 4.73169 24.6812 4.84773C24.7972 4.96377 24.8624 5.12115 24.8624 5.28525C24.8624 5.44936 24.7972 5.60674 24.6812 5.72278C24.5651 5.83881 24.4077 5.904 24.2436 5.904H8.49129C8.32719 5.904 8.1698 5.83881 8.05377 5.72278C7.93773 5.60674 7.87254 5.44936 7.87254 5.28525ZM6.24316 8.39396C6.24316 8.22985 6.30835 8.07247 6.42439 7.95643C6.54043 7.8404 6.69781 7.77521 6.86191 7.77521H26.0096C26.1738 7.77521 26.3311 7.8404 26.4472 7.95643C26.5632 8.07247 26.6284 8.22985 26.6284 8.39396C26.6284 8.55806 26.5632 8.71544 26.4472 8.83148C26.3311 8.94752 26.1738 9.01271 26.0096 9.01271H6.8614C6.69729 9.01271 6.53991 8.94752 6.42388 8.83148C6.30784 8.71544 6.24316 8.55806 6.24316 8.39396ZM3.11951 14.0246C3.11951 12.4375 4.40857 11.1541 5.99566 11.1541H26.8754C28.4625 11.1541 29.7515 12.4375 29.7515 14.0241V25.3348C29.7515 26.9214 28.4625 28.2048 26.8754 28.2048H5.99566C5.61837 28.2052 5.24469 28.1313 4.89595 27.9873C4.54722 27.8433 4.23027 27.632 3.96319 27.3655C3.69612 27.099 3.48415 26.7825 3.33939 26.4341C3.19463 26.0856 3.11991 25.7121 3.11951 25.3348V14.0246ZM5.99566 12.3916C5.78088 12.3912 5.56812 12.4331 5.36952 12.5149C5.17093 12.5967 4.9904 12.7169 4.83824 12.8685C4.68608 13.02 4.56526 13.2001 4.48269 13.3984C4.40012 13.5967 4.35741 13.8093 4.35701 14.0241V25.3348C4.35741 25.5496 4.40012 25.7622 4.48269 25.9605C4.56526 26.1588 4.68608 26.3388 4.83824 26.4904C4.9904 26.642 5.17093 26.7622 5.36952 26.844C5.56812 26.9258 5.78088 26.9677 5.99566 26.9673H26.8754C27.0902 26.9677 27.3029 26.9258 27.5015 26.844C27.7001 26.7622 27.8806 26.642 28.0328 26.4904C28.185 26.3388 28.3058 26.1588 28.3884 25.9605C28.4709 25.7622 28.5136 25.5496 28.514 25.3348V14.0241C28.5136 13.8093 28.4709 13.5967 28.3884 13.3984C28.3058 13.2001 28.185 13.02 28.0328 12.8685C27.8806 12.7169 27.7001 12.5967 27.5015 12.5149C27.3029 12.4331 27.0902 12.3912 26.8754 12.3916H5.99566Z" fill="black"/>
<path d="M12.4859 14.6571C12.4209 14.706 12.3662 14.7673 12.325 14.8373C12.2416 14.9786 12.2182 15.1472 12.2591 15.306C12.3 15.4649 12.4024 15.601 12.5436 15.6845L15.9312 17.6836V18.6184H11.7511C11.587 18.6184 11.4296 18.6836 11.3136 18.7996C11.1975 18.9156 11.1323 19.073 11.1323 19.2371C11.1323 19.4012 11.1975 19.5586 11.3136 19.6747C11.4296 19.7907 11.587 19.8559 11.7511 19.8559H15.9312V21.5121H11.7511C11.587 21.5121 11.4296 21.5773 11.3136 21.6933C11.1975 21.8093 11.1323 21.9667 11.1323 22.1308C11.1323 22.2949 11.1975 22.4523 11.3136 22.5683C11.4296 22.6844 11.587 22.7496 11.7511 22.7496H15.9307V24.4774C15.9307 24.6415 15.9959 24.7989 16.112 24.9149C16.228 25.031 16.3854 25.0962 16.5495 25.0962C16.7136 25.0962 16.871 25.031 16.987 24.9149C17.103 24.7989 17.1682 24.6415 17.1682 24.4774V22.7537L21.252 22.7836C21.4161 22.7848 21.5739 22.7207 21.6908 22.6055C21.8076 22.4903 21.874 22.3333 21.8751 22.1692C21.8763 22.0051 21.8122 21.8473 21.697 21.7304C21.5818 21.6136 21.4248 21.5473 21.2607 21.5461L17.1682 21.5162V19.8554H21.2566C21.4207 19.8554 21.5781 19.7902 21.6941 19.6741C21.8102 19.5581 21.8754 19.4007 21.8754 19.2366C21.8754 19.0725 21.8102 18.9151 21.6941 18.7991C21.5781 18.6831 21.4207 18.6179 21.2566 18.6179H17.1682V17.6794L20.4693 15.6809C20.6088 15.5955 20.7088 15.4583 20.7474 15.2993C20.7861 15.1404 20.7602 14.9726 20.6755 14.8327C20.5908 14.6928 20.4541 14.5921 20.2953 14.5527C20.1366 14.5132 19.9687 14.5383 19.8283 14.6223L16.5454 16.6095L13.1727 14.6187C13.1026 14.5773 13.0252 14.5502 12.9447 14.5388C12.8642 14.5274 12.7822 14.532 12.7035 14.5523C12.6248 14.5726 12.5508 14.6082 12.4859 14.6571Z" fill="url(#paint0_linear_1774_1236)"/>
<defs>
<linearGradient id="paint0_linear_1774_1236" x1="11.1323" y1="19.9257" x2="21.8754" y2="19.7032" gradientUnits="userSpaceOnUse">
<stop stop-color="white"/>
<stop offset="0.5" stop-color="#9E70FA"/>
<stop offset="1" stop-color="#653EB3"/>
</linearGradient>
</defs>
</svg>
