<svg width="33" height="33" viewBox="0 0 33 33" fill="none" xmlns="http://www.w3.org/2000/svg">
<path d="M3.72129 13.8583V14.4584H4.32129H13.5671H14.1671V13.8583V4.61255V4.01255H13.5671H4.32129H3.72129V4.61255V13.8583ZM3.72129 28.3861V28.9861H4.32129H13.5671H14.1671V28.3861V19.1403V18.5403H13.5671H4.32129H3.72129V19.1403V28.3861ZM14.2277 14.5796H3.66064C3.62786 14.5796 3.6 14.5518 3.6 14.519V3.9519C3.6 3.91912 3.62786 3.89126 3.66064 3.89126H14.2277C14.2605 3.89126 14.2884 3.91911 14.2884 3.9519V14.519C14.2884 14.5518 14.2605 14.5796 14.2277 14.5796ZM14.2277 29.1074H3.66064C3.62786 29.1074 3.6 29.0795 3.6 29.0467V18.4796C3.6 18.4468 3.62786 18.419 3.66064 18.419H14.2277C14.2377 18.419 14.2552 18.4232 14.2729 18.4389C14.2817 18.4492 14.2884 18.4658 14.2884 18.4796V29.0467C14.2884 29.0808 14.2624 29.1074 14.2277 29.1074Z" stroke="black" stroke-width="1.2"/>
<path d="M23.4735 14.5796H18.1884C18.1556 14.5796 18.1277 14.5518 18.1277 14.519V9.23384C18.1277 6.28777 20.5242 3.89126 23.4703 3.89126C26.4164 3.89126 28.8129 6.28777 28.8129 9.23384C28.8129 12.1808 26.4187 14.5796 23.4735 14.5796Z" stroke="url(#paint0_linear_1774_1296)" stroke-width="1.2"/>
<path d="M28.7554 29.1075H18.1884C18.1556 29.1075 18.1277 29.0796 18.1277 29.0468V18.4797C18.1277 18.4692 18.1325 18.45 18.1508 18.4312C18.1521 18.4298 18.1556 18.4268 18.1626 18.424C18.1697 18.421 18.1787 18.4191 18.1884 18.4191H28.7554C28.766 18.4191 28.7852 18.4239 28.804 18.4422C28.8054 18.4435 28.8084 18.447 28.8112 18.4539C28.8141 18.4611 28.8161 18.4701 28.8161 18.4797V29.0468C28.8161 29.0673 28.8089 29.081 28.7993 29.0907C28.7896 29.1003 28.7759 29.1075 28.7554 29.1075Z" stroke="black" stroke-width="1.2"/>
<defs>
<linearGradient id="paint0_linear_1774_1296" x1="17.5277" y1="7.89743" x2="29.4129" y2="10.5735" gradientUnits="userSpaceOnUse">
<stop stop-color="white"/>
<stop offset="0.53" stop-color="#9E70FA"/>
<stop offset="1" stop-color="#653EB3"/>
</linearGradient>
</defs>
</svg>
