<svg width="33" height="33" viewBox="0 0 33 33" fill="none" xmlns="http://www.w3.org/2000/svg">
<path opacity="0.7" d="M9.6551 17.7406L14.3441 13.0517L19.033 17.7406C19.2232 17.934 19.4906 18.0307 19.7613 18.0049C20.0321 17.9791 20.277 17.8341 20.4284 17.6117C20.5026 17.5698 20.5735 17.5183 20.6379 17.4538L27.9662 10.1255C28.1402 9.95469 28.2369 9.72266 28.2369 9.47773C28.2369 9.23603 28.1403 9.00078 27.9695 8.82998C27.7987 8.65918 27.5634 8.5625 27.3217 8.5625C27.08 8.5625 26.8447 8.65918 26.6739 8.8332L19.6904 15.8135L15.1433 11.2663C14.9338 11.0568 14.6341 10.9602 14.3408 11.0117C14.0476 10.9602 13.7479 11.0536 13.5384 11.2663L8.36281 16.4483C8.0051 16.8061 8.00832 17.3829 8.36603 17.7406C8.72375 18.0983 9.3006 18.0951 9.6551 17.7406Z" fill="url(#paint0_linear_1774_1232)"/>
<path d="M30.1318 26.8802H5.01768C4.2958 26.8802 3.70605 26.2905 3.70605 25.5686V5.28198C3.70605 4.81792 3.33223 4.44409 2.86816 4.44409C2.4041 4.44409 2.03027 4.82114 2.03027 5.28198V25.5718C2.03027 27.2186 3.3709 28.5592 5.01768 28.5592H30.1318C30.5959 28.5592 30.9697 28.1854 30.9697 27.7213C30.9697 27.2573 30.5959 26.8802 30.1318 26.8802Z" fill="black"/>
<defs>
<linearGradient id="paint0_linear_1774_1232" x1="8.09613" y1="15.2677" x2="28.2369" y2="11.3037" gradientUnits="userSpaceOnUse">
<stop stop-color="white"/>
<stop offset="0.53" stop-color="#9E70FA"/>
<stop offset="1" stop-color="#653EB3"/>
</linearGradient>
</defs>
</svg>
