<svg width="33" height="33" viewBox="0 0 33 33" fill="none" xmlns="http://www.w3.org/2000/svg">
<path d="M15.8648 19.5113C13.0448 19.5113 10.5006 17.8109 9.42315 15.205C8.34576 12.6023 8.94287 9.60056 10.9387 7.60802C12.9344 5.61548 15.933 5.01837 18.5389 6.10226C21.1447 7.1829 22.842 9.72712 22.8387 12.5472C22.8322 16.3927 19.7136 19.5081 15.8648 19.5113ZM15.8648 6.88435C12.3276 6.88435 9.54972 10.1425 10.3675 13.8225C10.8316 15.9157 12.4769 17.561 14.57 18.025C18.25 18.8428 21.5082 16.065 21.5082 12.5277C21.4952 9.42207 18.9737 6.91031 15.8648 6.90382V6.88435Z" fill="black"/>
<path d="M24.1011 15.3706C23.65 15.3706 23.2184 15.1921 22.8971 14.8708C22.5791 14.5528 22.3974 14.1179 22.3974 13.6668V10.9474C22.3584 10.3146 22.6732 9.71421 23.2151 9.38645C23.7571 9.05868 24.4353 9.05868 24.9773 9.38645C25.5192 9.71421 25.834 10.3146 25.7951 10.9474V13.6733C25.7918 14.6112 25.0357 15.3673 24.1011 15.3706ZM24.1011 10.5807C24.0037 10.5807 23.9064 10.6196 23.8382 10.691C23.7701 10.7624 23.7279 10.8565 23.7279 10.9539V13.6798C23.7019 13.8713 23.8285 14.0595 24.0362 14.0984C24.0751 14.1049 24.1141 14.1049 24.153 14.0984C24.3639 14.0595 24.4873 13.8713 24.4613 13.6798V10.9539C24.4581 10.7527 24.2958 10.5904 24.0946 10.5872V10.5807H24.1011ZM7.63181 15.3706C6.69395 15.3706 5.93458 14.6144 5.93134 13.6766V10.9506C5.8924 10.3178 6.20718 9.71746 6.74912 9.38969C7.29107 9.06193 7.96931 9.06193 8.51125 9.38969C9.0532 9.71746 9.36798 10.3178 9.32904 10.9506V13.6766C9.32255 14.6112 8.56642 15.3673 7.63181 15.3706ZM7.63181 10.5807C7.47929 10.5807 7.3365 10.6748 7.28133 10.8273C7.26511 10.8695 7.26186 10.9149 7.26186 10.9571V13.6766C7.24239 13.8194 7.30729 13.9621 7.43061 14.04C7.55393 14.1179 7.70969 14.1179 7.82977 14.04C7.95308 13.9621 8.01799 13.8194 7.99852 13.6766V10.9506C7.99527 10.7494 7.83301 10.5872 7.63181 10.5839V10.5807Z" fill="black"/>
<path d="M23.4423 10.0226C23.4034 9.78891 22.4526 4.38569 15.8584 4.32728H15.7513C9.26416 4.32728 8.31982 9.78891 8.28736 10.0226L6.95684 9.81812C6.9828 9.75321 8.10563 3 15.7513 3H15.8649C23.6143 3.07464 24.7437 9.75321 24.7566 9.81812L23.4423 10.0226ZM9.48483 18.6288C8.81308 18.6645 8.1608 18.4081 7.69025 17.9311C7.12235 17.2106 6.84326 16.3052 6.90492 15.3933C6.90167 15.1954 6.98605 15.0072 7.13857 14.8773C7.28785 14.7475 7.48905 14.6924 7.68376 14.7281C8.00828 14.78 8.24518 15.0623 8.24193 15.3933C8.19325 15.9645 8.34253 16.5356 8.66705 17.0094C8.81633 17.1555 9.01104 17.2463 9.21873 17.269C9.49782 17.3177 9.712 17.5416 9.75743 17.8207L9.82233 18.6125L9.48483 18.6288ZM24.2439 22.1757C24.0492 22.2634 23.8545 22.3477 23.6598 22.4354C23.4002 22.4581 23.1405 22.4776 22.8809 22.5003C22.7965 22.4224 22.67 22.312 22.511 22.1855C20.0901 20.2416 17.1791 20.0112 15.8616 20.0112C6.7816 20.0112 6.34999 27.9002 6.33052 28.2377C6.33052 28.413 6.25913 28.5817 6.13581 28.7083C6.0125 28.8316 5.8405 28.903 5.66526 28.903C5.49002 28.903 5.32127 28.8316 5.19471 28.7083C5.07139 28.585 5 28.413 5 28.2377C5 28.1436 5.49976 18.7618 15.8584 18.7618C16.9455 18.7618 20.3756 18.7294 23.147 21.0724C23.6403 21.4878 24.0005 21.8869 24.2439 22.1757Z" fill="black"/>
<path d="M28.4502 25.631L27.9148 25.3584C27.944 25.1702 27.9342 24.9852 27.9245 24.7613C27.9148 24.5764 27.8693 24.3914 27.8596 24.2064L28.3659 23.8851C28.4729 23.804 28.5443 23.7261 28.5735 23.5768C28.606 23.4633 28.5606 23.3172 28.5184 23.2069L27.8726 22.1944C27.7136 21.977 27.4475 21.9153 27.23 22.0386L26.7238 22.3599C26.4123 22.1133 26.0683 21.9445 25.6918 21.8504L25.6626 21.2565C25.6496 20.9969 25.416 20.7827 25.1564 20.7957L23.9654 20.8541C23.7058 20.8671 23.4916 21.1008 23.5046 21.3604L23.5338 21.9543C23.1703 22.1198 22.8426 22.3242 22.557 22.5611L22.0215 22.2885C21.7911 22.149 21.4991 22.2755 21.3985 22.5059L20.8533 23.5768C20.7137 23.8072 20.8403 24.0993 21.0707 24.1999L21.6062 24.4725C21.5769 24.6607 21.5867 24.8457 21.5964 25.0339C21.6062 25.2189 21.6516 25.4039 21.6613 25.6278L21.1551 25.9491C20.9376 26.1081 20.876 26.3742 20.9993 26.5916L21.6451 27.6041C21.7262 27.7112 21.8041 27.7826 21.9534 27.8118C22.067 27.8442 22.213 27.7988 22.3233 27.7566L22.8296 27.4354C23.1411 27.682 23.4851 27.8507 23.8615 27.9448L23.8908 28.5387C23.9037 28.7983 24.1374 29.0125 24.397 28.9995L25.588 28.9411C25.8476 28.9281 26.0618 28.6945 26.0488 28.4349L26.0196 27.841C26.3831 27.6755 26.7108 27.4711 26.9964 27.2342L27.5318 27.5068C27.7623 27.6463 28.0543 27.5197 28.1549 27.2893L28.7001 26.2184C28.7683 26.027 28.6774 25.7316 28.4502 25.631ZM24.8221 26.9616C23.7058 27.0167 22.7712 26.1665 22.716 25.0502C22.6608 23.9338 23.5111 22.9992 24.6274 22.944C25.7438 22.8889 26.6784 23.7391 26.7335 24.8554C26.8244 25.9328 25.9385 26.9096 24.8221 26.9616Z" fill="url(#paint0_linear_1774_1307)"/>
<path d="M23.1925 25.0544C23.1925 25.4813 23.3621 25.8907 23.6639 26.1926C23.9658 26.4945 24.3752 26.664 24.8021 26.664C25.229 26.664 25.6384 26.4945 25.9403 26.1926C26.2421 25.8907 26.4117 25.4813 26.4117 25.0544C26.4117 24.6275 26.2421 24.2181 25.9403 23.9163C25.6384 23.6144 25.229 23.4448 24.8021 23.4448C24.3752 23.4448 23.9658 23.6144 23.6639 23.9163C23.3621 24.2181 23.1925 24.6275 23.1925 25.0544Z" fill="url(#paint1_linear_1774_1307)"/>
<defs>
<linearGradient id="paint0_linear_1774_1307" x1="20.795" y1="23.1761" x2="28.7222" y2="26.6191" gradientUnits="userSpaceOnUse">
<stop stop-color="white"/>
<stop offset="0.495" stop-color="#9E70FA"/>
<stop offset="1" stop-color="#653EB3"/>
</linearGradient>
<linearGradient id="paint1_linear_1774_1307" x1="23.1925" y1="24.6611" x2="26.061" y2="25.5345" gradientUnits="userSpaceOnUse">
<stop stop-color="white"/>
<stop offset="0.517138" stop-color="#9E70FA"/>
<stop offset="1" stop-color="#653EB3"/>
</linearGradient>
</defs>
</svg>
