<svg width="33" height="33" viewBox="0 0 33 33" fill="none" xmlns="http://www.w3.org/2000/svg">
<path d="M15.125 18.6184L15.3433 18.6704C15.6352 18.7402 15.9322 18.7834 16.2292 18.7974L16.5275 18.8012C16.9527 18.7885 17.0581 19.0487 16.775 19.3444L16.6963 19.418C16.6818 19.4306 16.6701 19.4462 16.6621 19.4637L16.6189 19.5652L16.5618 19.7379L16.4425 20.1719C16.2434 20.82 15.8806 21.4058 15.389 21.8727L15.1732 22.0606C14.5132 22.6812 13.0016 23.1686 11.2285 23.3844L10.8706 23.4224L10.6751 23.3031C10.5612 23.0116 10.4223 22.7305 10.2601 22.4629L10.09 22.2002L9.90467 21.9311L10.585 21.8714L11.2374 21.8042L11.5369 21.7699L12.0839 21.695L12.5662 21.6138C13.4725 21.4424 14.0208 21.2203 14.3762 20.9056C14.8306 20.4816 14.9956 20.0882 15.0882 19.0842L15.1263 18.6184H15.125ZM17.2192 20.2938C18.0341 20.5832 18.8401 20.8979 19.6346 21.2394L20.4266 21.5897L21.4014 22.0466L20.57 23.3539L20.306 23.411C19.4429 22.8526 18.5342 22.3652 17.5937 21.9577L17.0251 21.7229L16.2013 21.4145L17.0035 20.3585L17.2192 20.2951V20.2938ZM12.9331 10.5347C13.31 10.7314 13.7073 10.8824 14.1236 10.9891C14.5678 11.116 14.6199 11.4028 14.2505 11.6034L14.1502 11.6516C14.1189 11.6664 14.0892 11.6842 14.0614 11.7049L13.9535 11.795C13.9315 11.8153 13.9099 11.836 13.8888 11.8572L13.7352 12.0184L13.5448 12.238L13.1729 12.6911L13.0701 12.7558V16.7006L12.8797 16.891H12.2083L12.4444 16.9138L12.862 16.9392L13.3836 16.9557L14.8801 16.9684H16.6659L17.6076 16.9608L18.392 16.9456L18.8401 16.9316L19 16.924L18.9314 16.8922C18.0919 16.4769 17.3632 15.8678 16.8055 15.1153L16.6037 14.8272L16.5059 14.6673L15.9094 14.7599L15.5527 14.8234L15.1974 14.8919L14.4866 15.043L13.7758 15.2156L13.5436 15.0607L13.3646 13.9629L13.5334 13.742C14.1975 13.6761 14.8588 13.5851 15.5159 13.4691L15.9576 13.3854L15.8586 13.0884C15.7507 12.7482 15.6556 12.403 15.5731 12.0565L15.4588 11.5336L15.3662 11.0056L15.3281 10.7682L15.568 10.786C15.8561 10.8076 16.1455 10.8152 16.4349 10.8076L16.8664 10.786C17.2929 10.7504 17.4414 10.9484 17.2764 11.2861L17.2383 11.3546L17.1837 11.5551C17.1037 11.9131 17.1076 12.2824 17.1939 12.634L17.2548 12.8421L17.3347 13.0452L17.3792 13.1302L18.4707 12.9272L19.1777 12.8053L19.8783 12.667L20.5764 12.5096L21.2744 12.3332L21.5067 12.4791L21.7377 13.5694L21.5702 13.7979L21.098 13.855L18.8172 14.2129L17.9808 14.3703L18.1432 14.5759C18.5545 15.0633 19.0711 15.4504 19.6587 15.7093L19.9151 15.8134L20.1791 15.901C20.3542 15.9682 20.4317 15.9543 20.5053 15.5964L20.5446 15.3654L20.6119 14.8704L20.6601 14.4832L20.9356 14.7599C21.1767 15.0024 21.4559 15.2042 21.7618 15.3539L21.9954 15.458L22.1121 15.6738C21.8101 17.1436 21.4242 17.5472 20.5294 17.4164L20.2971 17.3707L20.0687 17.3162L20.0611 17.5992L20.0649 17.8657L20.0801 18.1234V19.418L20.0877 19.7683L20.1067 20.1161L20.1385 20.474L19.9494 20.6809H18.8159L18.6256 20.4905V18.2275H13.324V20.7291L13.1336 20.9195H11.7298L11.7552 20.7076L11.7882 20.356L11.8072 20.0057L11.8123 19.6477V16.891H11.5712L11.6105 16.6676C11.641 16.4988 11.6626 16.33 11.6778 16.1612L11.6956 15.9099L11.7019 15.5164V14.5353L11.5141 14.7523L11.3744 14.9046L11.2297 15.0531L10.9315 15.3412L10.7627 15.4974L10.6408 15.3019C10.4673 15.0238 10.2573 14.7703 10.0164 14.548L9.83105 14.3868L9.62036 14.218L9.85009 14.0758C10.5928 13.6193 11.2325 13.0133 11.7286 12.2964C12.0294 11.8801 12.2908 11.4396 12.5129 10.9776L12.6716 10.6286L12.9343 10.5347H12.9331ZM19.085 10.6717L19.3186 10.7479C19.4442 10.9472 19.5572 11.1541 19.66 11.3686L19.8034 11.696L19.9227 12.0171L19.8148 12.2608L18.4301 12.8028L18.3831 12.5832C18.33 12.3329 18.25 12.0891 18.1445 11.8559L18.0328 11.63L17.7828 11.2074L19.085 10.6717Z" fill="#1D2C4E"/>
<path d="M16.1213 3.49027C8.874 3.49027 3 9.36426 3 16.6116C3 23.8589 8.874 29.7316 16.1213 29.7316C23.3026 29.6618 29.07 23.7954 29.0192 16.6167C29.0198 15.213 28.7996 13.818 28.3668 12.4828C28.294 12.2686 28.1437 12.0893 27.9455 11.9801C27.7269 11.8842 27.4795 11.8778 27.2563 11.9624C27.1468 11.9978 27.0461 12.0561 26.9609 12.1334C26.8757 12.2107 26.8078 12.3052 26.7619 12.4107C26.7159 12.5162 26.6929 12.6302 26.6943 12.7453C26.6957 12.8603 26.7216 12.9737 26.7702 13.078C27.1319 14.2077 27.321 15.4261 27.3185 16.6522C27.3381 19.6436 26.1696 22.5205 24.0697 24.6511C21.9698 26.7817 19.1102 27.9918 16.1188 28.0156C9.82719 28.0156 4.72488 22.9133 4.72488 16.6192C4.72522 13.5969 5.92606 10.6985 8.06327 8.56152C10.2005 6.42455 13.099 5.22403 16.1213 5.22403C17.5413 5.21928 18.9485 5.49176 20.2641 6.02619C20.4761 6.11224 20.7135 6.11134 20.9249 6.0237C21.1363 5.93605 21.3047 5.76869 21.3937 5.55784C21.4386 5.4528 21.462 5.33981 21.4624 5.22558C21.4628 5.11134 21.4402 4.99818 21.3961 4.89282C21.3519 4.78746 21.2871 4.69205 21.2053 4.61224C21.1236 4.53243 21.0267 4.46986 20.9203 4.42823C19.3972 3.80529 17.7669 3.48664 16.1213 3.49027Z" fill="#1D2C4E"/>
<path d="M22.9002 6.0589C22.864 6.08204 22.8334 6.11102 22.8104 6.14417C22.7638 6.21104 22.7508 6.29085 22.7736 6.36604C22.7965 6.44123 22.8536 6.50566 22.9325 6.54516L24.8245 7.49138V7.93387H22.4899C22.3982 7.93387 22.3103 7.96472 22.2455 8.01965C22.1807 8.07457 22.1443 8.14906 22.1443 8.22674C22.1443 8.30441 22.1807 8.37891 22.2455 8.43383C22.3103 8.48876 22.3982 8.51961 22.4899 8.51961H24.8245V9.30354H22.4899C22.3982 9.30354 22.3103 9.33439 22.2455 9.38932C22.1807 9.44424 22.1443 9.51873 22.1443 9.59641C22.1443 9.67408 22.1807 9.74858 22.2455 9.8035C22.3103 9.85842 22.3982 9.88928 22.4899 9.88928H24.8242V10.7071C24.8242 10.7848 24.8606 10.8593 24.9254 10.9142C24.9902 10.9691 25.0781 11 25.1698 11C25.2614 11 25.3493 10.9691 25.4141 10.9142C25.4789 10.8593 25.5153 10.7848 25.5153 10.7071V9.89123L27.7961 9.90539C27.8878 9.90594 27.9759 9.87561 28.0412 9.82107C28.1065 9.76654 28.1435 9.69226 28.1441 9.61459C28.1448 9.53691 28.109 9.4622 28.0447 9.40689C27.9803 9.35158 27.8927 9.32019 27.801 9.31964L25.5153 9.30549V8.51937H27.7987C27.8904 8.51937 27.9783 8.48851 28.0431 8.43359C28.1079 8.37866 28.1443 8.30417 28.1443 8.2265C28.1443 8.14882 28.1079 8.07433 28.0431 8.0194C27.9783 7.96448 27.8904 7.93362 27.7987 7.93362H25.5153V7.48943L27.359 6.54345C27.4369 6.50303 27.4927 6.4381 27.5143 6.36287C27.5359 6.28764 27.5215 6.20822 27.4741 6.14199C27.4268 6.07576 27.3505 6.02811 27.2618 6.00944C27.1732 5.99078 27.0794 6.00263 27.001 6.0424L25.1675 6.98301L23.2838 6.04069C23.2447 6.02112 23.2014 6.00828 23.1565 6.00289C23.1115 5.9975 23.0658 5.99967 23.0218 6.00928C22.9778 6.01889 22.9365 6.03575 22.9002 6.0589Z" fill="url(#paint0_linear_1774_1329)"/>
<defs>
<linearGradient id="paint0_linear_1774_1329" x1="22.1443" y1="8.55266" x2="28.1433" y2="8.40605" gradientUnits="userSpaceOnUse">
<stop stop-color="white"/>
<stop offset="0.5" stop-color="#9E70FA"/>
<stop offset="1" stop-color="#653EB3"/>
</linearGradient>
</defs>
</svg>
