<svg width="658.554199" height="393.920654" viewBox="0 0 658.554 393.921" fill="none" xmlns="http://www.w3.org/2000/svg" xmlns:xlink="http://www.w3.org/1999/xlink">
	<desc>
			Created with Pixso.
	</desc>
	<defs>
		<linearGradient x1="71.968307" y1="187.123230" x2="623.459595" y2="196.960266" id="paint_linear_2_68_0" gradientUnits="userSpaceOnUse">
			<stop stop-color="#F2F7FF"/>
			<stop offset="0.619128" stop-color="#FBF8FB"/>
			<stop offset="1.000000" stop-color="#F2F7FF"/>
		</linearGradient>
	</defs>
	<path id="路径 4391" d="M631.88 3.15C644.83 3.15 655.4 13.76 655.4 26.7L655.4 367.16C655.4 380.16 644.83 390.76 631.88 390.76L26.62 390.76C13.71 390.76 3.15 380.16 3.15 367.16L3.15 26.7C3.15 13.76 13.71 3.15 26.62 3.15L631.88 3.15Z" fill="url(#paint_linear_2_68_0)" fill-opacity="1.000000" fill-rule="evenodd"/>
	<path id="路径 4391" d="M658.55 367.16L658.55 26.7C658.55 23.1 657.92 19.75 656.66 16.65L656.66 16.65C655.36 13.44 653.38 10.5 650.73 7.84C648.06 5.17 645.12 3.18 641.89 1.87L641.89 1.87L641.89 1.87C638.81 0.62 635.47 0 631.88 0L26.62 0C23.06 0 19.76 0.61 16.7 1.84C13.46 3.15 10.49 5.15 7.81 7.85C5.16 10.51 3.18 13.45 1.88 16.66L1.88 16.66C0.62 19.75 0 23.1 0 26.7L0 367.16C0 370.8 0.63 374.18 1.9 377.3L1.9 377.3L1.9 377.3C3.21 380.49 5.17 383.41 7.81 386.06C10.49 388.75 13.45 390.75 16.69 392.06L16.69 392.06C19.75 393.3 23.06 393.92 26.62 393.92L631.88 393.92C635.48 393.92 638.82 393.29 641.9 392.04L641.9 392.03C645.12 390.73 648.06 388.73 650.73 386.06C653.36 383.42 655.33 380.5 656.64 377.31L656.64 377.31C657.91 374.19 658.55 370.81 658.55 367.16ZM631.88 3.15C644.83 3.15 655.4 13.76 655.4 26.7L655.4 367.16C655.4 380.16 644.83 390.76 631.88 390.76L26.62 390.76C13.71 390.76 3.15 380.16 3.15 367.16L3.15 26.7C3.15 13.76 13.71 3.15 26.62 3.15L631.88 3.15Z" fill="#EFF1F6" fill-opacity="1.000000" fill-rule="evenodd"/>
	<path id="路径 733" d="M531.37 185.03L531.37 207.63L503.27 233.49L475.16 207.63L475.16 185.03L531.37 185.03Z" fill="#FEE9E8" fill-opacity="1.000000" fill-rule="evenodd"/>
	<path id="路径 734" d="M423.2 233.23L423.2 257.05C423.2 260.38 426.01 263.2 429.48 263.2L578.96 263.2C582.43 263.2 585.24 260.51 585.24 257.05L585.24 233.23C585.11 227.6 581.08 222.66 575.45 221.32L536.91 212.49C536.39 212.36 535.87 212.1 535.31 211.84L504.13 229.77L474.16 211.01C473.39 211.66 472.43 212.23 471.35 212.49L432.81 221.32C427.22 222.66 423.2 227.47 423.2 233.23Z" fill="#EDF1F6" fill-opacity="1.000000" fill-rule="evenodd"/>
	<path id="路径 735" d="M475.16 211.84L475.16 189.36L531.37 189.36L531.37 193.13C531.37 193.13 510.63 224.26 475.16 211.84Z" fill="#F5DDDD" fill-opacity="1.000000" fill-rule="evenodd"/>
	<path id="路径 736" d="M469.19 176.93L466.5 120.07L545.58 120.07L542.89 176.93C542.63 182.17 540.08 187.11 535.7 190.31L523.1 199.53C519.9 201.96 516 203.17 512.15 203.17L499.93 203.17C495.95 203.17 492.18 201.83 488.98 199.53L476.42 190.31C472.13 187.11 469.45 182.3 469.19 176.93Z" fill="#FFEEEE" fill-opacity="1.000000" fill-rule="evenodd"/>
	<path id="路径 737" d="M557.44 257.22C557.44 253.1 559.3 248.94 562.68 246L582.86 228.33C584.59 230.45 585.54 233.01 585.54 235.82L585.54 259.64C585.54 262.98 582.73 265.66 579.26 265.66L557.44 265.66L557.44 257.22Z" fill="#E3E9F0" fill-opacity="1.000000" fill-rule="evenodd"/>
	<path id="路径 738" d="M508.56 263.76L492.49 263.76L494.48 236.99L506.52 236.99L508.56 263.76Z" fill="#C7CDE5" fill-opacity="1.000000" fill-rule="evenodd"/>
	<path id="路径 739" d="M492.49 232.66L508.56 232.66L508.56 238.55C508.56 240.42 506.95 242.02 504.92 242.02L496.08 242.02C494.09 242.02 492.49 240.42 492.49 238.55L492.49 232.66Z" fill="#C7CDE5" fill-opacity="1.000000" fill-rule="evenodd"/>
	<path id="路径 740" d="M475.34 207.45L503.83 232.57C503.83 232.57 495.82 236.6 486.03 244.48C484.04 246.12 480.97 245.43 479.88 243.18L466.5 214.25L470.79 207.97C471.74 206.5 473.87 206.24 475.34 207.45ZM532.33 207.45C533.8 206.24 535.97 206.5 536.88 207.97L541.16 214.25L527.78 243.18C526.7 245.43 523.63 246.12 521.63 244.48C511.85 236.6 503.83 232.57 503.83 232.57L532.33 207.45Z" fill="#E3E9F0" fill-opacity="1.000000" fill-rule="evenodd"/>
	<path id="路径 741" d="M525.74 120.5L522.8 100.32C556.27 88.11 553.59 138.73 553.59 138.86C545.53 147.39 547.26 160.12 547.26 160.12L542.2 152.37C541.68 151.55 541.25 150.46 541.25 149.42C540.99 143.54 539.12 123.05 525.74 120.5Z" fill="#9499AD" fill-opacity="1.000000" fill-rule="evenodd"/>
	<path id="路径 742" d="M548.97 162.47C550.05 158.49 546.98 154.72 542.56 154.72C538.53 154.72 535.33 157.92 535.85 161.69L537.75 175.59C538.01 177.45 539.61 178.79 541.61 178.79C543.34 178.79 544.94 177.71 545.37 176.11L548.97 162.47Z" fill="#FFEEEE" fill-opacity="1.000000" fill-rule="evenodd"/>
	<path id="路径 743" d="M503.43 85.44C493.82 85.44 475.59 88.39 466.1 93.24L470.65 96.31C449.9 111.56 453.8 137.49 453.8 137.49C459.95 143.69 459.95 158.93 459.95 158.93L466.1 152.78C466.1 152.78 463.68 135.11 475.46 128.27C486.32 121.99 495.81 125.2 505.55 125.2C531.53 125.2 538.9 115.58 537.55 103.8C536.9 97.65 527.51 84.92 503.43 85.44Z" fill="#9499AD" fill-opacity="1.000000" fill-rule="evenodd"/>
	<path id="路径 744" d="M464.11 124.66C464.11 124.66 460.86 111.8 470.52 98.42C449.91 113.66 453.8 139.78 453.8 139.78C459.95 145.92 459.95 161.3 459.95 161.3L466.1 155.15C466.1 155.15 463.68 137.35 475.33 130.55C486.15 124.1 495.55 127.48 505.16 127.48C509.32 127.48 513.09 127.17 516.29 126.65C496.33 127.3 484.68 112.19 464.11 124.66Z" fill="#9499AD" fill-opacity="1.000000" fill-rule="evenodd"/>
	<path id="路径 745" d="M461.66 171.78L458.06 158.14C456.98 154.15 460.05 150.39 464.47 150.39C468.5 150.39 471.7 153.59 471.18 157.36L469.28 171.26C469.02 173.12 467.42 174.46 465.42 174.46C463.69 174.46 462.09 173.38 461.66 171.78Z" fill="#FFEEEE" fill-opacity="1.000000" fill-rule="evenodd"/>
	<path id="路径 746" d="M521.54 258.65L543.36 258.65C545.1 258.65 546.44 260.12 546.57 261.98L546.57 265.31L518.46 265.31L518.46 261.98C518.46 260.12 519.81 258.65 521.54 258.65Z" fill="#E3E9F0" fill-opacity="1.000000" fill-rule="evenodd"/>
	<path id="路径 723" d="M157.2 63.77L223.48 63.77C229.51 63.77 234.41 68.62 234.49 74.64C234.56 80.78 229.61 85.79 223.48 85.79L157.2 85.79C151.17 85.79 146.27 80.94 146.19 74.92C146.12 68.78 151.07 63.77 157.2 63.77ZM156.96 119.97L223.72 119.97C229.61 119.97 234.41 124.71 234.49 130.61C234.56 136.61 229.72 141.52 223.72 141.52L156.96 141.52C151.07 141.52 146.27 136.78 146.19 130.88C146.12 124.88 150.96 119.97 156.96 119.97ZM372.31 119.97L384.11 119.97C390.1 119.97 394.95 124.83 394.95 130.82C394.95 136.81 390.1 141.65 384.11 141.65L372.31 141.65C366.32 141.65 361.46 136.79 361.47 130.8C361.48 124.82 366.33 119.97 372.31 119.97ZM156.27 177.51L297.99 177.51C303.52 177.51 308.02 181.96 308.09 187.49C308.15 193.12 303.61 197.71 297.99 197.71L156.27 197.71C150.74 197.71 146.24 193.26 146.17 187.73C146.11 182.11 150.65 177.51 156.27 177.51ZM355.95 254.21L156.98 254.21C150.95 254.21 146.06 249.33 146.06 243.3C146.06 237.27 150.95 232.38 156.98 232.38L355.95 232.38C361.98 232.38 366.86 237.26 366.86 243.29C366.86 249.32 361.98 254.21 355.95 254.21ZM578.71 340.79L282.63 340.79C276.44 340.79 271.43 335.77 271.43 329.58C271.43 323.39 276.44 318.37 282.63 318.37L578.71 318.37C584.9 318.37 589.92 323.39 589.92 329.58C589.92 335.77 584.9 340.79 578.71 340.79Z" fill="#DAE7FD" fill-opacity="1.000000" fill-rule="evenodd"/>
	<rect id="矩形 337" x="63.778809" y="63.778320" rx="10.826106" width="56.295750" height="21.652212" fill="#DAE7FD" fill-opacity="1.000000"/>
	<rect id="矩形 338" x="63.778809" y="120.072266" rx="10.826106" width="56.295750" height="21.652212" fill="#DAE7FD" fill-opacity="1.000000"/>
	<rect id="矩形 339" x="63.778809" y="176.369385" rx="10.826106" width="56.295750" height="21.652212" fill="#DAE7FD" fill-opacity="1.000000"/>
	<rect id="矩形 340" x="63.778809" y="232.666260" rx="10.826106" width="56.295750" height="21.652212" fill="#DAE7FD" fill-opacity="1.000000"/>
	<rect id="矩形 341" x="63.778809" y="327.933838" rx="10.826106" width="151.565491" height="21.652212" fill="#DAE7FD" fill-opacity="1.000000"/>
	<rect id="矩形 342" x="288.960449" y="120.072266" rx="10.826106" width="47.634865" height="21.652212" fill="#DAE7FD" fill-opacity="1.000000"/>
</svg>
