<svg width="33" height="33" viewBox="0 0 33 33" fill="none" xmlns="http://www.w3.org/2000/svg">
<path d="M28.5737 25.7418C28.4144 25.6172 28.218 25.5498 28.0158 25.5503H20.0993C19.824 25.5503 19.56 25.6597 19.3653 25.8543C19.1706 26.049 19.0613 26.313 19.0613 26.5884C19.0613 26.8637 19.1706 27.1277 19.3653 27.3224C19.56 27.517 19.824 27.6264 20.0993 27.6264H24.9614C25.0057 27.6264 25.0492 27.6388 25.0868 27.6623C25.1245 27.6858 25.1548 27.7193 25.1743 27.7592C25.1938 27.7991 25.2017 27.8436 25.1971 27.8877C25.1925 27.9318 25.1756 27.9738 25.1483 28.0088L23.6352 29.9501C23.6208 29.9689 23.6143 29.9925 23.6169 30.0161C23.6196 30.0396 23.6312 30.0612 23.6494 30.0764C23.6657 30.0889 23.6856 30.0957 23.7061 30.0957H26.1436C26.1981 30.0952 26.2518 30.0827 26.3008 30.0589C26.3498 30.035 26.3928 30.0006 26.4268 29.958L28.7267 27.0124C28.8735 26.8231 28.9398 26.5835 28.9112 26.3456C28.8825 26.1078 28.7613 25.8908 28.5737 25.7418Z" fill="url(#paint0_linear_1799_1251)"/>
<path d="M22.8309 21.6461L24.3445 19.7048C24.3589 19.6861 24.3654 19.6626 24.3628 19.6391C24.3601 19.6157 24.3485 19.5941 24.3303 19.5791C24.3143 19.5662 24.2942 19.5594 24.2737 19.5598H21.8356C21.7812 19.5603 21.7276 19.5729 21.6786 19.5966C21.6296 19.6203 21.5865 19.6546 21.5524 19.6969L19.2525 22.6426C19.1487 22.7763 19.0844 22.9364 19.067 23.1047C19.0495 23.2731 19.0795 23.443 19.1536 23.5951C19.2277 23.7473 19.343 23.8757 19.4863 23.9657C19.6296 24.0558 19.7953 24.1039 19.9645 24.1046H27.8798C28.1552 24.1046 28.4193 23.9952 28.6141 23.8005C28.8088 23.6058 28.9182 23.3417 28.9182 23.0663C28.9182 22.7909 28.8088 22.5268 28.6141 22.3321C28.4193 22.1373 28.1552 22.0279 27.8798 22.0279H23.0178C22.9736 22.0277 22.9304 22.0151 22.893 21.9916C22.8556 21.9681 22.8255 21.9346 22.806 21.895C22.7866 21.8553 22.7786 21.811 22.783 21.767C22.7874 21.7231 22.804 21.6812 22.8309 21.6461Z" fill="url(#paint1_linear_1799_1251)"/>
<path d="M24.5818 11.1045C24.5727 9.71153 24.2067 8.3441 23.5187 7.13285C22.8306 5.92159 21.8435 4.90697 20.6516 4.18588C19.4597 3.46478 18.1029 3.06131 16.7107 3.01398C15.3184 2.96666 13.9373 3.27706 12.6992 3.91555C11.4611 4.55404 10.4074 5.49929 9.63866 6.66102C8.86994 7.82276 8.4119 9.16218 8.30829 10.5514C8.20468 11.9405 8.45896 13.3331 9.04684 14.596C9.63472 15.8589 10.5366 16.95 11.6662 17.7651L11.8928 17.9651L11.6011 18.0897C9.56079 18.9676 7.79021 20.3716 6.47038 22.1581C5.15054 23.9447 4.32879 26.0496 4.08914 28.2578C4.07375 28.4107 4.09062 28.565 4.13865 28.7109C4.18669 28.8568 4.26481 28.9909 4.36797 29.1047C4.47113 29.2185 4.59703 29.3094 4.73752 29.3714C4.87801 29.4335 5.02997 29.4654 5.18356 29.465C5.45283 29.4581 5.71067 29.3547 5.91002 29.1735C6.10937 28.9924 6.23695 28.7456 6.26948 28.4782C6.53031 25.9644 7.71377 23.6366 9.59112 21.9446C11.4685 20.2527 13.9064 19.3168 16.4337 19.3178C18.6026 19.3069 20.6786 18.4359 22.2062 16.8962C23.7338 15.3564 24.5881 13.2735 24.5818 11.1045ZM16.4314 17.1057H16.0802L16.0898 17.0927C14.9396 17.0171 13.8354 16.6123 12.909 15.9265C11.9825 15.2407 11.2729 14.3028 10.8647 13.2249C10.4565 12.1469 10.367 10.9742 10.6068 9.84679C10.8467 8.71934 11.4058 7.68468 12.2174 6.86621C12.7676 6.30768 13.4235 5.86444 14.147 5.56243C14.8705 5.26043 15.6469 5.1057 16.4308 5.10732C18.022 5.10732 19.548 5.73941 20.6731 6.86453C21.7982 7.98965 22.4303 9.51564 22.4303 11.1068C22.4303 12.698 21.7982 14.224 20.6731 15.3491C19.548 16.4742 18.022 17.1063 16.4308 17.1063L16.4314 17.1057Z" fill="black"/>
<defs>
<linearGradient id="paint0_linear_1799_1251" x1="23.9895" y1="25.5503" x2="23.9895" y2="30.0957" gradientUnits="userSpaceOnUse">
<stop stop-color="white"/>
<stop offset="0.5" stop-color="#9370FA"/>
<stop offset="1" stop-color="#653EB3"/>
</linearGradient>
<linearGradient id="paint1_linear_1799_1251" x1="23.9902" y1="19.5598" x2="23.9902" y2="24.1046" gradientUnits="userSpaceOnUse">
<stop stop-color="white"/>
<stop offset="0.5" stop-color="#9370FA"/>
<stop offset="1" stop-color="#653EB3"/>
</linearGradient>
</defs>
</svg>
