<svg width="658.553955" height="393.920654" viewBox="0 0 658.554 393.921" fill="none" xmlns="http://www.w3.org/2000/svg" xmlns:xlink="http://www.w3.org/1999/xlink">
	<desc>
			Created with Pixso.
	</desc>
	<defs>
		<linearGradient x1="71.968307" y1="187.123230" x2="623.459595" y2="196.960266" id="paint_linear_2_97_0" gradientUnits="userSpaceOnUse">
			<stop stop-color="#F2F7FF"/>
			<stop offset="0.619128" stop-color="#FBF8FB"/>
			<stop offset="1.000000" stop-color="#F2F7FF"/>
		</linearGradient>
	</defs>
	<path id="路径 4392" d="M3.15 26.7C3.15 13.76 13.71 3.15 26.62 3.15L631.88 3.15C644.83 3.15 655.4 13.76 655.4 26.7L655.4 367.16C655.4 380.16 644.83 390.76 631.88 390.76L26.62 390.76C13.71 390.76 3.15 380.16 3.15 367.16L3.15 26.7Z" fill="url(#paint_linear_2_97_0)" fill-opacity="1.000000" fill-rule="evenodd"/>
	<path id="路径 4392" d="M631.88 0L26.62 0C23.06 0 19.76 0.61 16.7 1.84L16.7 1.84C13.46 3.15 10.49 5.15 7.81 7.85C5.16 10.51 3.18 13.45 1.88 16.66C0.62 19.75 0 23.1 0 26.7L0 367.16C0 370.8 0.63 374.18 1.9 377.3L1.9 377.3L1.9 377.3C3.21 380.49 5.17 383.41 7.81 386.06C10.49 388.75 13.45 390.75 16.69 392.06L16.69 392.06C19.75 393.3 23.06 393.92 26.62 393.92L631.88 393.92C635.48 393.92 638.82 393.29 641.9 392.04L641.9 392.03C645.12 390.73 648.06 388.73 650.73 386.06C653.36 383.42 655.33 380.5 656.64 377.31L656.64 377.31C657.91 374.19 658.55 370.81 658.55 367.16L658.55 26.7C658.55 23.1 657.92 19.75 656.66 16.65L656.66 16.65C655.36 13.44 653.38 10.5 650.73 7.84C648.06 5.17 645.12 3.18 641.9 1.87L641.89 1.87L641.89 1.87C638.81 0.62 635.47 0 631.88 0ZM3.15 26.7C3.15 13.76 13.71 3.15 26.62 3.15L631.88 3.15C644.83 3.15 655.4 13.76 655.4 26.7L655.4 367.16C655.4 380.16 644.83 390.76 631.88 390.76L26.62 390.76C13.71 390.76 3.15 380.16 3.15 367.16L3.15 26.7Z" fill="#EFF1F6" fill-opacity="1.000000" fill-rule="evenodd"/>
	<path id="路径 757" d="M130.05 245.65L525.99 245.65C533.84 245.65 540.21 252.02 540.21 259.87C540.21 267.73 533.84 274.1 525.99 274.1L130.05 274.1C122.19 274.1 115.83 267.73 115.83 259.87C115.83 252.02 122.19 245.65 130.05 245.65ZM130.05 299.49L525.99 299.49C533.84 299.49 540.21 305.85 540.21 313.71C540.21 321.56 533.84 327.93 525.99 327.93L130.05 327.93C122.19 327.93 115.83 321.56 115.83 313.71C115.83 305.85 122.19 299.49 130.05 299.49Z" fill="#DAE7FD" fill-opacity="1.000000" fill-rule="evenodd"/>
	<path id="路径 748" d="M228.06 189.96C213.68 201.5 197.8 207.23 180.15 207.23C162.57 207.23 146.69 201.5 132.32 189.96L132.32 167.02L228.06 167.02L228.06 189.96Z" fill="#E7E8EE" fill-opacity="1.000000" fill-rule="evenodd"/>
	<path id="路径 749" d="M176.4 192.23C141.65 192.23 113.41 163.98 113.41 129.17C113.41 94.42 141.65 66.17 176.4 66.17C211.22 66.17 239.46 94.42 239.46 129.17C239.46 163.98 211.22 192.23 176.4 192.23Z" fill="#F1F1F7" fill-opacity="1.000000" fill-rule="evenodd"/>
	<path id="路径 750" d="M119.77 142.6L233.22 142.6L233.22 167.81L119.77 167.81L119.77 142.6Z" fill="#F1F1F7" fill-opacity="1.000000" fill-rule="evenodd"/>
	<path id="路径 751" d="M176.4 179.62C148.6 179.62 126.01 157.03 126.01 129.17C126.01 101.37 148.6 78.78 176.4 78.78C204.27 78.78 226.86 101.37 226.86 129.17C226.86 157.03 204.27 179.62 176.4 179.62Z" fill="#D3DAF6" fill-opacity="1.000000" fill-rule="evenodd"/>
	<path id="路径 752" d="M161.66 141.72L191.64 141.8C193.75 141.8 195.47 143.53 195.47 145.63L195.47 147.55L157.87 147.48L157.87 145.56C157.87 143.45 159.56 141.72 161.66 141.72ZM147.23 153.29L207.34 153.29C212.12 153.29 215.95 155.01 215.95 157.12L215.95 159.03L138.62 159.03L138.62 157.12C138.62 155.01 142.44 153.29 147.23 153.29Z" fill="#F1F1F7" fill-opacity="1.000000" fill-rule="evenodd"/>
	<path id="路径 753" d="M157.53 147.83L195.34 147.83L195.34 154.13L157.53 154.13L157.53 147.83Z" fill="#E4E5E8" fill-opacity="1.000000" fill-rule="evenodd"/>
	<path id="路径 754" d="M181.41 112.25L174.73 108.59L168.05 112.25L169.38 104.81L163.83 99.45L171.46 98.26L174.73 91.38L178.2 98.26L185.64 99.45L180.28 104.81L181.41 112.25Z" fill="#FFFFFF" fill-opacity="1.000000" fill-rule="evenodd"/>
	<path id="路径 755" d="M181.6 196.27C175.3 196.27 170.13 191.16 170.13 184.8C170.13 178.49 175.3 173.32 181.6 173.32C187.97 173.32 193.07 178.49 193.07 184.8C193.07 191.16 187.97 196.27 181.6 196.27Z" fill="#FFFFFF" fill-opacity="1.000000" fill-rule="evenodd"/>
	<path id="路径 756" d="M147.82 104.56L144.92 101.91L148.76 101.34L150.65 97.69L152.35 101.34L156.2 101.91L153.36 104.56L154.12 108.4L150.65 106.7L147 108.4L147.82 104.56ZM200.59 108.4L201.41 104.56L198.51 101.91L202.36 101.34L204.25 97.69L205.95 101.34L209.8 101.91L206.96 104.56L207.72 108.4L204.25 106.7L200.59 108.4ZM161.21 117.96L158.32 115.31L162.16 114.74L164.05 111.09L165.75 114.74L169.6 115.31L166.76 117.96L167.52 121.8L164.05 120.1L160.39 121.8L161.21 117.96ZM188.01 117.96L185.12 115.31L188.96 114.74L190.85 111.09L192.55 114.74L196.4 115.31L193.56 117.96L194.32 121.8L190.85 120.1L187.2 121.8L188.01 117.96Z" fill="#FFFFFF" fill-opacity="1.000000" fill-rule="evenodd"/>
	<path id="矢量 19" d="M296.99 116.56L296.99 100.15L284.87 100.15L284.87 94.08L281.45 94.08L281.45 100.02L269.37 100.02L269.37 116.56L272.66 116.56L272.66 114.61L281.45 114.61L281.45 126.04L284.74 126.04L284.74 114.61L293.71 114.61L293.71 116.56L296.99 116.56ZM311.21 94.22C309.22 97.77 306.18 100.8 301.99 103.44L303.03 106.73C304.37 105.78 305.67 104.87 306.84 103.96L306.84 112.23L309.99 112.23L309.99 101.06C311.6 99.32 312.9 97.51 313.94 95.52L311.21 94.22ZM411.67 94.22L411.67 100.93L405.86 100.93L405.86 104.09L411.8 104.09L411.8 111.45L404.18 111.45L404.18 114.61L434.71 114.61L434.71 111.45L427.04 111.45L427.04 104.09L432.98 104.09L432.98 100.93L427.04 100.93L427.04 94.35L423.79 94.35L423.79 100.93L414.96 100.93L414.96 94.22L411.67 94.22ZM335.39 122.75L337.38 125.66C344.49 120.89 349.21 115.13 351.45 108.03C354.06 115.26 358.56 121.2 365.1 125.53L367.22 122.75C359.47 117.9 354.57 111.06 352.62 101.97C352.75 99.89 352.89 97.38 352.89 94.35L349.59 94.35L349.59 99.76C349.34 109.46 344.62 117.21 335.39 122.75ZM452.96 97.12L451.4 94.48C448.11 95.65 443.91 96.6 438.63 96.99L439.7 99.89C441.27 99.72 442.83 99.59 444.43 99.33L444.43 103.44L438.63 103.44L438.63 106.43L444.3 106.56C442.95 109.98 440.74 113.14 437.72 115.91L439.14 119.46C441.27 117.08 443.13 114.49 444.43 111.58L444.43 125.27L447.59 125.27L447.59 110.8C448.76 112.1 449.93 113.79 451.53 116.05L453.35 113.27C451.4 111.2 449.4 109.33 447.59 107.64L447.59 106.3L453.09 106.3L453.09 103.27L447.59 103.27L447.59 98.68C449.4 98.29 451.27 97.77 452.96 97.12ZM328.69 107.65C328.3 107.91 327.78 108.17 326.96 108.17L322.24 108.17C321.46 108.17 321.07 107.78 321.07 107.08L321.07 104.36C324.88 102.49 328.3 100.41 331.16 97.9L328.95 95.65C326.83 97.51 324.23 99.33 321.07 100.93L321.07 94.74L317.91 94.74L317.91 102.36C316.05 103.27 313.97 103.97 311.72 104.74L313.58 107.39C315.01 106.95 316.44 106.31 317.91 105.79L317.91 107.78C317.91 109.86 319.08 111.07 321.33 111.07L327.61 111.07C329.21 111.07 330.25 110.81 331.03 110.24C331.72 109.6 332.24 107.91 332.63 104.87L329.6 103.84C329.47 105.91 329.08 107.26 328.69 107.65ZM401.27 118.39L398.37 116.84C398.11 119.09 397.99 120.38 397.73 121.04C397.46 121.69 397.2 121.95 396.95 121.95C396.03 121.95 394.95 121.42 393.91 120.38C392.74 119.35 391.66 117.49 390.62 115.15C390.36 114.58 390.23 113.93 389.97 113.29L400.1 113.29L400.1 110.12L389.33 110.12C389.2 108.82 388.93 107.48 388.8 106.05L397.99 106.05L397.99 95.4L373.13 95.4L373.13 120.38C373.13 121.17 372.87 121.55 372.35 121.95L373.13 124.98C378.15 124.07 382.22 123.03 385.51 121.95L384.69 118.96C381.87 120 379.15 120.78 376.42 121.3L376.42 113.29L386.94 113.29C387.2 114.45 387.59 115.41 387.98 116.32C389.33 119.22 390.88 121.42 392.61 123.03C394.31 124.59 396.03 125.37 397.59 125.37C398.37 125.37 399.2 124.85 399.72 124.07C400.24 123.16 400.76 121.3 401.27 118.39ZM473.22 125.63L476.39 125.63L476.39 124.33L498.47 124.33L498.47 125.63L501.76 125.63L501.76 95.66L473.22 95.66L473.22 125.63ZM467.71 124.34L467.71 96.32L454.02 96.32L454.02 124.73L457.18 124.73L457.18 121.83L464.55 121.83L464.55 124.34L467.71 124.34ZM394.7 103.02L376.3 103.02L376.3 98.56L394.7 98.56L394.7 103.02ZM498.47 98.69L498.47 121.29L476.38 121.29L476.38 98.69L498.47 98.69ZM464.68 99.34L464.68 118.79L457.31 118.79L457.31 99.34L464.68 99.34ZM478.87 103.96L485.71 103.96L485.71 108.16L480.08 108.16L480.08 111.06L485.71 111.06L485.71 115.78L477.96 115.78L477.96 118.68L496.76 118.68L496.76 115.78L493.33 115.78L495.2 115C494.55 113.7 493.85 112.49 493.07 111.45L490.61 112.23C491.25 113.27 491.91 114.48 492.55 115.78L489.14 115.78L489.14 111.06L494.8 111.06L494.8 108.16L489.14 108.16L489.14 103.96L495.84 103.96L495.84 101.05L478.87 101.05L478.87 103.96ZM281.57 103.29L281.57 111.43L272.79 111.43L272.79 103.29L281.57 103.29ZM293.85 103.29L293.85 111.43L284.89 111.43L284.89 103.29L293.85 103.29ZM423.75 104.08L423.75 111.44L414.96 111.44L414.96 104.08L423.75 104.08ZM376.3 110.13L376.3 106.05L385.37 106.05C385.5 107.5 385.76 108.82 386.03 110.13L376.3 110.13ZM315.67 111.31L315.67 114.34L302.51 114.34L302.51 117.51L315.67 117.51L315.67 125.78L318.97 125.78L318.97 117.51L332.22 117.51L332.22 114.34L318.97 114.34L318.97 111.31L315.67 111.31ZM414.31 115.26C411.54 118.16 408.12 120.67 404.05 122.88L406.3 125.78C410.37 123.4 413.92 120.67 416.69 117.51L414.31 115.26ZM424.84 115.39L422.46 117.64C426.66 120.5 429.82 123.27 432.2 125.78L434.8 123.14C432.07 120.5 428.78 118.03 424.84 115.39ZM400.74 159.72L398.01 157.99C397.19 159.85 396.15 161.67 394.72 163.4L394.72 149.07L385.11 149.07C385.5 148.28 385.76 147.46 386.01 146.56L382.86 146.04C382.59 147.07 382.33 148.16 381.95 149.07L374.97 149.07L374.97 164.96L371.03 164.96L371.03 167.99L389.69 167.99C385.76 170.76 379.56 172.88 371.16 174.31L372.59 177.21C379.31 176 385.11 174.05 389.82 171.28L391.56 170.11L391.56 173.79C391.56 174.44 391.17 174.83 390.65 174.83L387.23 174.7L388.01 177.86L391.69 177.86C393.64 177.86 394.72 176.82 394.72 174.57L394.72 167.6C397.06 165.35 399.18 162.75 400.74 159.72ZM483.92 171.82L483.92 174.98L504.96 174.98L504.96 171.82L497.6 171.82L497.6 161.03L503.79 161.03L503.79 158L497.6 158L497.6 149.21L504.31 149.21L504.31 146.05L484.96 146.05L484.96 149.21L494.31 149.21L494.31 171.82L490.24 171.82L490.24 154.32L487.08 154.32L487.08 171.82L483.92 171.82ZM449.93 160.63L452.18 158.12C448.5 155.13 445.86 151.15 444.3 146.17L441.53 147.73C443.09 153.01 445.86 157.34 449.93 160.63ZM420.35 159.98L421.39 163.4L424.55 159.85L424.55 178L427.84 178L427.84 154.96C429.14 152.62 430.35 150.11 431.14 147.6L428.23 146.3C426.55 151.54 423.9 156.04 420.35 159.98ZM432.45 159.6L432.45 162.76L436.52 162.76C436 165.62 435.35 168 434.44 169.86C433.36 171.81 431.93 173.67 429.81 175.23L431.93 177.87C434.44 175.88 436.26 173.67 437.47 171.29C438.51 169.17 439.29 166.31 439.81 162.76L444.96 162.76C444.96 168 444.83 171.29 444.57 172.2C444.27 173.67 443.75 174.45 442.58 174.45C441.41 174.45 440.07 174.32 438.64 174.19L439.42 177.22C441.15 177.22 442.32 177.35 442.97 177.35C445.61 177.35 447.04 176.14 447.43 173.67C447.82 171.81 447.95 167.09 447.95 159.47L432.45 159.6ZM431.02 161.16C431.41 160.64 431.93 160.12 432.45 159.6C434.96 156.57 437.04 152.62 438.64 147.86L435.61 146.69C434.05 151.67 431.67 155.92 428.51 158.91L431.02 161.16ZM479.69 154.06L481.9 151.8C480.47 150.11 478.6 148.38 476.39 146.82L474.14 148.95C476.52 150.77 478.35 152.5 479.69 154.06ZM335.91 165.5C336.17 166.66 336.56 167.62 336.95 168.53C338.29 171.43 339.85 173.64 341.59 175.24C343.27 176.8 345 177.62 346.57 177.62C347.34 177.62 348.17 177.06 348.68 176.28C349.21 175.37 349.72 173.51 350.25 170.65L347.34 169.05C347.08 171.3 346.95 172.6 346.7 173.25C346.44 173.9 346.17 174.2 345.91 174.2C345 174.2 343.92 173.64 342.89 172.6C341.72 171.56 340.63 169.7 339.59 167.36C339.33 166.8 339.2 166.15 338.94 165.5L349.08 165.5L349.08 162.33L338.29 162.33C338.16 161.03 337.91 159.69 337.77 158.27L346.95 158.27L346.95 147.48L322.1 147.48L322.1 172.6C322.1 173.38 321.84 173.77 321.32 174.2L322.1 177.19C327.12 176.28 331.19 175.24 334.48 174.2L333.66 171.17C330.85 172.21 328.11 172.99 325.39 173.51L325.39 165.5L335.91 165.5ZM296.71 156.58L296.71 147.61L270.95 147.61L270.95 159.31C270.95 166.02 269.78 171.56 267.39 175.76L269.91 178.01C272.12 173.51 273.46 168.53 273.97 162.73L284.11 162.73L284.11 166.15L276.18 166.15L276.18 178.01L279.35 178.01L279.35 176.54L292.64 176.54L292.64 178.01L295.8 178.01L295.8 166.15L287.4 166.15L287.4 162.86L298.05 162.86L298.05 159.83L287.4 159.83L287.4 156.58L296.71 156.58ZM274.1 153.67L274.1 150.64L293.44 150.64L293.44 153.67L274.1 153.67ZM325.26 155.1L325.26 150.64L343.67 150.64L343.67 155.1L325.26 155.1ZM391.68 151.95L391.68 154.45L378.14 154.45L378.14 151.95L391.68 151.95ZM471.65 159.59L476.37 159.59L476.37 171.8C476.37 172.49 476.11 173.01 475.59 173.53L476.76 176.43C479.14 174.83 481.26 173.14 483.34 171.15L482.56 167.73C481.39 168.77 480.44 169.72 479.53 170.5L479.53 156.42L471.65 156.42L471.65 159.59ZM274.1 159.84L274.1 156.56L284.1 156.56L284.1 159.84L274.1 159.84ZM378.14 157.08L391.68 157.08L391.68 159.58L378.14 159.58L378.14 157.08ZM325.26 162.21L325.26 158.13L334.34 158.13C334.47 159.58 334.74 160.9 335 162.21L325.26 162.21ZM391.68 162.34L391.68 165.11L378.14 165.11L378.14 162.34L391.68 162.34ZM292.53 169.05L292.53 173.51L279.23 173.51L279.23 169.05L292.53 169.05Z" fill="#B2CDFC" fill-opacity="1.000000" fill-rule="evenodd"/>
</svg>
