<svg width="33" height="33" viewBox="0 0 33 33" fill="none" xmlns="http://www.w3.org/2000/svg">
<path d="M15.9027 3.21191C17.272 3.21183 18.6074 3.63764 19.7239 4.43032C20.8404 5.22301 21.6827 6.34334 22.1342 7.63607C22.5856 8.92879 22.6237 10.3299 22.2434 11.6453C21.863 12.9607 21.0829 14.1252 20.0112 14.9775C21.9628 15.5821 23.7476 16.6311 25.2252 18.0421C25.7202 18.5129 26.1767 19.0211 26.5936 19.5623C26.7716 19.7935 26.8504 20.0859 26.8128 20.3753C26.7751 20.6646 26.6241 20.9271 26.3929 21.1051C26.1617 21.283 25.8693 21.3619 25.5799 21.3242C25.2906 21.2866 25.0281 21.1355 24.8501 20.9043C24.5022 20.4525 24.1202 20.0282 23.7072 19.6349C21.6529 17.6723 18.9199 16.5791 16.0787 16.5835C9.96934 16.5835 5.01604 21.5357 5.01604 27.6451C5.01604 27.963 5.02924 28.2776 5.05564 28.5911C5.08015 28.8818 4.98816 29.1704 4.79992 29.3933C4.61168 29.6162 4.34261 29.7552 4.05189 29.7797C3.76117 29.8042 3.47263 29.7122 3.24973 29.5239C3.02684 29.3357 2.88785 29.0666 2.86334 28.7759C2.83144 28.4019 2.81604 28.0246 2.81604 27.6451C2.81604 21.7821 6.62204 16.8079 11.8965 15.0556C10.8002 14.2176 9.99405 13.0571 9.59152 11.7371C9.18899 10.4172 9.2103 9.00432 9.65247 7.69713C10.0946 6.38995 10.9354 5.25424 12.0565 4.4497C13.1777 3.64517 14.5228 3.21228 15.9027 3.21191ZM15.9027 5.35471C15.3174 5.35466 14.7377 5.46992 14.1969 5.69389C13.6561 5.91786 13.1647 6.24617 12.7508 6.66006C12.3368 7.07396 12.0085 7.56533 11.7845 8.10613C11.5605 8.64693 11.4452 9.22655 11.4452 9.81191C11.4452 10.3973 11.5605 10.9769 11.7845 11.5177C12.0085 12.0585 12.3368 12.5499 12.7508 12.9638C13.1647 13.3777 13.6561 13.706 14.1969 13.9299C14.7377 14.1539 15.3174 14.2692 15.9027 14.2691C17.0848 14.269 18.2184 13.7994 19.0542 12.9635C19.89 12.1276 20.3596 10.994 20.3596 9.81191C20.3596 8.62986 19.89 7.49621 19.0542 6.66033C18.2184 5.82446 17.0848 5.35481 15.9027 5.35471Z" fill="#2B2B36"/>
<path d="M29.8837 20.4931C30.2907 20.9001 30.2907 21.5601 29.8837 21.9671L22.5137 29.3371C22.333 29.5174 22.0925 29.6252 21.8376 29.64C21.5828 29.6548 21.3314 29.5756 21.131 29.4174L21.0397 29.336L17.3547 25.651C17.1592 25.4556 17.0494 25.1904 17.0494 24.914C17.0494 24.6376 17.1592 24.3725 17.3547 24.177C17.5502 23.9816 17.8153 23.8717 18.0917 23.8717C18.3681 23.8717 18.6332 23.9816 18.8287 24.177L21.7767 27.125L28.4097 20.492C28.8167 20.085 29.4767 20.085 29.8837 20.492V20.4931Z" fill="url(#paint0_linear_1906_1296)"/>
<defs>
<linearGradient id="paint0_linear_1906_1296" x1="17.0494" y1="27.9882" x2="30.189" y2="21.8403" gradientUnits="userSpaceOnUse">
<stop stop-color="white"/>
<stop offset="0.5" stop-color="#9370FA"/>
<stop offset="1" stop-color="#653EB3"/>
</linearGradient>
</defs>
</svg>
