<?xml version="1.0" standalone="no"?><!DOCTYPE svg PUBLIC "-//W3C//DTD SVG 1.1//EN" "http://www.w3.org/Graphics/SVG/1.1/DTD/svg11.dtd"><svg t="1744986570985" class="icon" viewBox="0 0 1024 1024" version="1.1" xmlns="http://www.w3.org/2000/svg" p-id="6648" xmlns:xlink="http://www.w3.org/1999/xlink" width="200" height="200"><path d="M443.15 628.58H240.14c-14.8 0-27.29 10.66-27.29 24.31 0 13.22 12.49 24.31 27.29 24.31h203.02c14.8 0 27.29-10.66 27.29-24.31-0.01-13.22-12.04-24.31-27.3-24.31z" fill="#666666" p-id="6649"></path><path d="M866.16 195.32H157.84c-52.26 0-93.84 44.94-93.84 99.7v433.97c0 54.76 41.58 99.7 93.84 99.7h708.32c52.26 0 93.84-44.94 93.84-99.7V295.02c0-54.77-41.58-99.7-93.84-99.7z m-708.32 42.43h708.32c28.06 0 51.41 25.24 51.41 57.27v41.11H106.43v-41.11c0-32.04 23.35-57.27 51.41-57.27z m708.32 548.5H157.84c-28.06 0-51.41-25.24-51.41-57.27V392.67h811.15v336.31c-0.01 32.04-23.36 57.27-51.42 57.27z" fill="#666666" p-id="6650"></path><path d="M529.7 508.98H238.01c-13.65 0-25.16 10.66-25.16 24.31 0 13.22 11.09 24.31 25.16 24.31H529.7c13.65 0 25.16-10.66 25.16-24.31 0-13.65-11.52-24.31-25.16-24.31z m256.33 4.65h-96.77c-14.52 0-24.19 9.76-24.19 24.41v97.67c0 14.65 9.67 24.41 24.19 24.41h96.77c14.52 0 24.2-9.76 24.2-24.41v-97.67c0-14.65-9.69-24.41-24.2-24.41z" fill="#666666" p-id="6651"></path></svg>