<svg width="33" height="33" viewBox="0 0 33 33" fill="none" xmlns="http://www.w3.org/2000/svg">
<path d="M31.284 27.8521H30.0795V13.4146C30.0795 11.1376 28.3965 9.45459 26.1195 9.45459H19.767V7.22709C19.767 4.95009 18.0675 3.26709 15.807 3.26709H7.55703C5.28003 3.26709 3.59703 4.96659 3.59703 7.22709V27.8521H2.39253C1.81503 27.8521 1.35303 28.2481 1.35303 28.8256C1.35303 29.4031 1.81503 29.7496 2.39253 29.7496H31.2675C31.845 29.7496 32.3235 29.4031 32.3235 28.8256C32.34 28.2316 31.8615 27.8521 31.284 27.8521ZM17.8695 9.28959V27.8521H5.49453V7.22709C5.49453 6.08859 6.41853 5.16459 7.55703 5.16459H15.807C16.9455 5.16459 17.8695 6.08859 17.8695 7.22709V9.28959ZM28.182 27.8521H19.767V11.3521H26.1195C27.258 11.3521 28.182 12.2761 28.182 13.4146V27.8521Z" fill="black"/>
<path d="M14.85 11.1706H8.49751C7.96951 11.1706 7.55701 10.7416 7.55701 10.2301C7.55701 9.70205 7.98601 9.28955 8.49751 9.28955H14.85C15.378 9.28955 15.7905 9.71855 15.7905 10.2301C15.807 10.7416 15.378 11.1706 14.85 11.1706ZM14.85 17.4571H8.49751C7.96951 17.4571 7.55701 17.0281 7.55701 16.5166C7.55701 15.9886 7.98601 15.5761 8.49751 15.5761H14.85C15.378 15.5761 15.7905 16.0051 15.7905 16.5166C15.807 17.0281 15.378 17.4571 14.85 17.4571ZM14.85 23.5786H8.49751C7.96951 23.5786 7.55701 23.1496 7.55701 22.6216C7.55701 22.0936 7.98601 21.6811 8.49751 21.6811H14.85C15.378 21.6811 15.7905 22.1101 15.7905 22.6216C15.807 23.1496 15.378 23.5786 14.85 23.5786Z" fill="black"/>
<path d="M22.9021 23.5787H25.2946C25.8226 23.5787 26.2516 23.1497 26.2351 22.6217C26.2351 22.1102 25.8226 21.6812 25.2946 21.6812H22.9021C22.3741 21.6812 21.9451 22.0937 21.9451 22.6217C21.9451 23.1497 22.3741 23.5787 22.9021 23.5787Z" fill="url(#paint0_linear_1774_1479)"/>
<path d="M22.9021 17.4572H25.2946C25.8226 17.4572 26.2516 17.0282 26.2351 16.5167C26.2351 16.0052 25.8226 15.5762 25.2946 15.5762H22.9021C22.3741 15.5762 21.9451 15.9887 21.9451 16.5167C21.9451 17.0282 22.3741 17.4572 22.9021 17.4572Z" fill="url(#paint1_linear_1774_1479)"/>
<defs>
<linearGradient id="paint0_linear_1774_1479" x1="22.4352" y1="23.5787" x2="25.7454" y2="15.5762" gradientUnits="userSpaceOnUse">
<stop stop-color="white"/>
<stop offset="0.5" stop-color="#9E70FA"/>
<stop offset="1" stop-color="#653EB3" stop-opacity="0.921569"/>
</linearGradient>
<linearGradient id="paint1_linear_1774_1479" x1="22.4352" y1="23.5787" x2="25.7454" y2="15.5762" gradientUnits="userSpaceOnUse">
<stop stop-color="white"/>
<stop offset="0.5" stop-color="#9E70FA"/>
<stop offset="1" stop-color="#653EB3" stop-opacity="0.921569"/>
</linearGradient>
</defs>
</svg>
