<svg width="200" height="200" viewBox="0 0 200 200" fill="none" xmlns="http://www.w3.org/2000/svg">
<g clip-path="url(#clip0_1918_177)">
<path d="M189.714 30.1365C186.795 30.1365 184.16 31.3391 182.274 33.2753L182.264 33.2654L70.5422 145.112L18.1795 92.5346L18.1595 92.5496C16.2582 90.4137 13.4837 89.0614 10.3947 89.0614C4.65591 89.0664 0 93.7223 0 99.4661C0 102.54 1.33739 105.3 3.45326 107.201L3.44327 107.211L63.1517 167.159C63.1616 167.174 63.1766 167.189 63.1916 167.199C65.0779 169.105 67.6928 170.288 70.5871 170.288C73.4815 170.288 76.1064 169.105 77.9877 167.194L196.841 48.1014C198.852 46.2051 200.109 43.5153 200.109 40.5362C200.109 34.7924 195.453 30.1365 189.714 30.1365Z" fill="#15B025"/>
</g>
<defs>
<clipPath id="clip0_1918_177">
<rect width="200" height="200" fill="white"/>
</clipPath>
</defs>
</svg>
