<?xml version="1.0" standalone="no"?><!DOCTYPE svg PUBLIC "-//W3C//DTD SVG 1.1//EN" "http://www.w3.org/Graphics/SVG/1.1/DTD/svg11.dtd"><svg t="1744988268824" class="icon" viewBox="0 0 1024 1024" version="1.1" xmlns="http://www.w3.org/2000/svg" p-id="11016" xmlns:xlink="http://www.w3.org/1999/xlink" width="200" height="200"><path d="M517.308 520.113c-104.26 0-189.115-84.803-189.115-189.163s84.801-189.163 189.115-189.163c104.261 0 189.163 84.803 189.163 189.163s-84.803 189.163-189.163 189.163zM517.308 212.4c-65.378 0-118.464 53.193-118.464 118.556s53.193 118.556 118.464 118.556c65.406 0 118.587-53.193 118.587-118.556 0-65.406-53.193-118.556-118.587-118.556z" fill="#040000" p-id="11017"></path><path d="M254.573 863.692c-1.981 0-3.927-0.005-5.938-0.451-19.221-3.317-32.175-21.515-28.942-40.777 24.862-147.175 97.517-215.933 154.084-247.693 29.411-16.538 77.965-36.198 142.234-36.198 0.005 0 0.307 0 0.423 0h1.67c0.005 0 0.307 0 0.423 0 64.228 0 112.762 19.673 142.234 36.198 56.646 31.79 129.238 100.525 154.084 247.693 3.317 19.221-9.678 37.466-28.942 40.777-19.261 3.317-37.466-9.678-40.777-28.922-34.304-202.992-169.722-225.030-226.683-225.030-0.003 0-0.006 0-0.327 0h-1.86c-0.003 0-0.006 0-0.307 0-56.956 0-192.405 22.034-226.683 225.030-2.917 17.258-17.798 29.411-34.737 29.411z" fill="#040000" p-id="11018"></path></svg>