<svg width="659" height="394" viewBox="0 0 659 394" fill="none" xmlns="http://www.w3.org/2000/svg">
<rect width="658.554" height="393.921" rx="10" fill="#F9F9F9"/>
<g filter="url(#filter0_f_1918_100)">
<path fill-rule="evenodd" clip-rule="evenodd" d="M573.872 40.2795C584.327 40.2795 592.86 48.8593 592.86 59.3232V334.636C592.86 345.149 584.327 353.72 573.872 353.72H85.2276C74.8049 353.72 66.2795 345.149 66.2795 334.636V59.3232C66.2795 48.8593 74.8049 40.2795 85.2276 40.2795H573.872Z" fill="url(#paint0_linear_1918_100)"/>
<path fill-rule="evenodd" clip-rule="evenodd" d="M595.14 334.397V59.5541C595.14 56.6479 594.632 53.9436 593.615 51.4411C592.567 48.8497 590.97 46.4763 588.833 44.329C586.679 42.1736 584.308 40.5671 581.703 39.5096C579.219 38.5005 576.525 38 573.63 38H85.4698C82.5986 38 79.937 38.4924 77.469 39.4854C74.8559 40.5429 72.4605 42.1574 70.299 44.3371C68.1617 46.4844 66.5648 48.8578 65.5163 51.4491C64.5 53.9436 64 56.6479 64 59.5541V334.397C64 337.336 64.5081 340.064 65.5324 342.583C66.589 345.158 68.1698 347.516 70.299 349.655C72.4605 351.826 74.8478 353.441 77.461 354.498C79.929 355.499 82.5986 356 85.4698 356H573.63C576.533 356 579.227 355.491 581.711 354.482V354.474C584.308 353.425 586.679 351.81 588.833 349.655C590.954 347.524 592.543 345.166 593.599 342.591C594.624 340.073 595.14 337.344 595.14 334.397ZM573.63 40.5429C584.074 40.5429 592.599 49.108 592.599 59.5541V334.397C592.599 344.892 584.074 353.449 573.63 353.449H85.4698C75.0575 353.449 66.5406 344.892 66.5406 334.397V59.5541C66.5406 49.108 75.0575 40.5429 85.4698 40.5429H573.63Z" fill="#EFF1F6"/>
<path fill-rule="evenodd" clip-rule="evenodd" d="M493.699 187.312V205.385L470.907 226.064L448.107 205.385V187.312H493.699Z" fill="#FEE9E8"/>
<path fill-rule="evenodd" clip-rule="evenodd" d="M405.936 225.783V245.031C405.936 247.721 408.209 250 411.015 250H531.931C534.738 250 537.011 247.826 537.011 245.031V225.783C536.906 221.234 533.646 217.242 529.092 216.159L497.916 209.024C497.496 208.919 497.075 208.709 496.622 208.499L471.4 222.987L447.157 207.828C446.535 208.353 445.758 208.814 444.884 209.024L413.709 216.159C409.187 217.242 405.936 221.129 405.936 225.783Z" fill="#EDF1F6"/>
<path fill-rule="evenodd" clip-rule="evenodd" d="M448.107 209.015V191.871H493.699V194.746C493.699 194.746 476.877 218.488 448.107 209.015Z" fill="#F5DDDD"/>
<path fill-rule="evenodd" clip-rule="evenodd" d="M442.339 180.535L440.129 133.742H505.097L502.887 180.535C502.673 184.847 500.578 188.912 496.98 191.546L486.629 199.134C484 201.133 480.796 202.129 477.633 202.129H467.593C464.324 202.129 461.226 201.026 458.597 199.134L448.279 191.546C444.754 188.912 442.553 184.954 442.339 180.535Z" fill="#FFEEEE"/>
<path fill-rule="evenodd" clip-rule="evenodd" d="M514.215 245.579C514.215 242.309 515.724 239.006 518.466 236.672L534.837 222.645C536.24 224.328 537.011 226.36 537.011 228.591V247.5C537.011 250.152 534.731 252.279 531.916 252.279H514.215V245.579Z" fill="#E3E9F0"/>
<path fill-rule="evenodd" clip-rule="evenodd" d="M474.323 251.14H461.785L463.338 229.484H472.731L474.323 251.14Z" fill="#C7CDE5"/>
<path fill-rule="evenodd" clip-rule="evenodd" d="M461.785 226.064H474.323V230.368C474.323 231.734 473.066 232.903 471.483 232.903H464.586C463.033 232.903 461.785 231.734 461.785 230.368V226.064Z" fill="#C7CDE5"/>
<path fill-rule="evenodd" clip-rule="evenodd" d="M447.282 206.158L470.333 226.134C470.333 226.134 463.852 229.338 455.931 235.605C454.321 236.909 451.837 236.36 450.955 234.571L440.129 211.565L443.6 206.571C444.369 205.402 446.092 205.195 447.282 206.158ZM493.393 206.158C494.583 205.195 496.338 205.402 497.075 206.571L500.538 211.565L489.712 234.571C488.838 236.36 486.354 236.909 484.736 235.605C476.823 229.338 470.333 226.134 470.333 226.134L493.393 206.158Z" fill="#E3E9F0"/>
<path fill-rule="evenodd" clip-rule="evenodd" d="M489.142 135.732L486.86 119.329C512.836 109.405 510.756 150.549 510.756 150.655C504.501 157.588 505.843 167.935 505.843 167.935L501.916 161.636C501.513 160.97 501.179 160.084 501.179 159.238C500.977 154.459 499.526 137.805 489.142 135.732Z" fill="#9499AD"/>
<path fill-rule="evenodd" clip-rule="evenodd" d="M507.191 169.248C508.11 166.233 505.498 163.376 501.736 163.376C498.307 163.376 495.583 165.801 496.026 168.657L497.643 179.189C497.864 180.598 499.226 181.613 500.928 181.613C502.4 181.613 503.762 180.795 504.128 179.583L507.191 169.248Z" fill="#FFEEEE"/>
<path fill-rule="evenodd" clip-rule="evenodd" d="M470.42 106.4C462.614 106.4 447.807 108.824 440.098 112.81L443.794 115.333C426.94 127.866 430.108 149.176 430.108 149.176C435.103 154.271 435.103 166.796 435.103 166.796L440.098 161.742C440.098 161.742 438.133 147.22 447.701 141.599C456.522 136.438 464.231 139.076 472.142 139.076C493.245 139.076 499.231 131.17 498.134 121.489C497.606 116.434 489.979 105.973 470.42 106.4Z" fill="#9499AD"/>
<path fill-rule="evenodd" clip-rule="evenodd" d="M438.533 138.713C438.533 138.713 435.877 128.456 443.769 117.785C426.932 129.94 430.11 150.772 430.11 150.772C435.134 155.669 435.134 167.935 435.134 167.935L440.158 163.03C440.158 163.03 438.181 148.834 447.699 143.41C456.538 138.266 464.218 140.962 472.069 140.962C475.467 140.962 478.547 140.715 481.161 140.3C464.855 140.818 455.337 128.767 438.533 138.713Z" fill="#9499AD"/>
<path fill-rule="evenodd" clip-rule="evenodd" d="M436.539 177.049L433.475 165.423C432.556 162.022 435.169 158.817 438.93 158.817C442.36 158.817 445.083 161.545 444.641 164.758L443.024 176.606C442.803 178.191 441.441 179.333 439.739 179.333C438.267 179.333 436.905 178.413 436.539 177.049Z" fill="#FFEEEE"/>
<path fill-rule="evenodd" clip-rule="evenodd" d="M484.799 247.72H502.494C503.905 247.72 504.991 248.727 505.097 250V252.28H482.301V250C482.301 248.727 483.396 247.72 484.799 247.72Z" fill="#E3E9F0"/>
<path fill-rule="evenodd" clip-rule="evenodd" d="M191.491 89.2903H244.764C249.611 89.2903 253.549 93.2015 253.613 98.0562C253.67 103.008 249.691 107.048 244.764 107.048H191.491C186.645 107.048 182.706 103.137 182.642 98.282C182.586 93.3305 186.564 89.2903 191.491 89.2903ZM191.298 134.612H244.957C249.691 134.612 253.549 138.434 253.613 143.192C253.67 148.031 249.779 151.99 244.957 151.99H191.298C186.564 151.99 182.706 148.168 182.642 143.41C182.586 138.571 186.476 134.612 191.298 134.612ZM364.386 134.612H373.87C378.685 134.612 382.583 138.531 382.583 143.362C382.583 148.192 378.685 152.095 373.87 152.095H364.386C359.572 152.095 355.665 148.176 355.673 143.345C355.682 138.523 359.58 134.612 364.386 134.612ZM190.744 181.014H304.651C309.096 181.014 312.713 184.602 312.769 189.062C312.818 193.602 309.168 197.304 304.651 197.304H190.744C186.299 197.304 182.682 193.715 182.626 189.256C182.578 184.723 186.227 181.014 190.744 181.014ZM351.237 242.867H191.315C186.468 242.867 182.538 238.932 182.538 234.069C182.538 229.206 186.468 225.263 191.315 225.263H351.237C356.083 225.263 360.006 229.198 360.006 234.061C360.006 238.924 356.083 242.867 351.237 242.867ZM530.28 312.688H292.306C287.331 312.688 283.304 308.64 283.304 303.648C283.304 298.656 287.331 294.608 292.306 294.608H530.28C535.255 294.608 539.29 298.656 539.29 303.648C539.29 308.64 535.255 312.688 530.28 312.688Z" fill="#DAE7FD"/>
<path d="M151.194 89.2903H123.839C119.118 89.2903 115.29 93.1175 115.29 97.8387C115.29 102.56 119.118 106.387 123.839 106.387H151.194C155.915 106.387 159.742 102.56 159.742 97.8387C159.742 93.1175 155.915 89.2903 151.194 89.2903Z" fill="#DAE7FD"/>
<path d="M151.194 133.742H123.839C119.118 133.742 115.29 137.824 115.29 142.86C115.29 147.896 119.118 151.979 123.839 151.979H151.194C155.915 151.979 159.742 147.896 159.742 142.86C159.742 137.824 155.915 133.742 151.194 133.742Z" fill="#DAE7FD"/>
<path d="M151.194 180.473H123.839C119.118 180.473 115.29 184.556 115.29 189.591C115.29 194.627 119.118 198.71 123.839 198.71H151.194C155.915 198.71 159.742 194.627 159.742 189.591C159.742 184.556 155.915 180.473 151.194 180.473Z" fill="#DAE7FD"/>
<path d="M151.194 226.064H123.839C119.118 226.064 115.29 229.892 115.29 234.613C115.29 239.334 119.118 243.161 123.839 243.161H151.194C155.915 243.161 159.742 239.334 159.742 234.613C159.742 229.892 155.915 226.064 151.194 226.064Z" fill="#DAE7FD"/>
<path d="M229.594 303.57H124.083C119.227 303.57 115.29 307.142 115.29 311.548C115.29 315.955 119.227 319.527 124.083 319.527H229.594C234.45 319.527 238.387 315.955 238.387 311.548C238.387 307.142 234.45 303.57 229.594 303.57Z" fill="#DAE7FD"/>
<path d="M327.342 133.742H305.583C300.575 133.742 296.516 137.824 296.516 142.86C296.516 147.896 300.575 151.979 305.583 151.979H327.342C332.349 151.979 336.409 147.896 336.409 142.86C336.409 137.824 332.349 133.742 327.342 133.742Z" fill="#DAE7FD"/>
</g>
<defs>
<filter id="filter0_f_1918_100" x="48.5" y="22.5" width="562.14" height="349" filterUnits="userSpaceOnUse" color-interpolation-filters="sRGB">
<feFlood flood-opacity="0" result="BackgroundImageFix"/>
<feBlend mode="normal" in="SourceGraphic" in2="BackgroundImageFix" result="shape"/>
<feGaussianBlur stdDeviation="7.75" result="effect1_foregroundBlur_1918_100"/>
</filter>
<linearGradient id="paint0_linear_1918_100" x1="121.839" y1="189.05" x2="567.074" y2="196.978" gradientUnits="userSpaceOnUse">
<stop stop-color="#F2F7FF"/>
<stop offset="0.619128" stop-color="#FBF8FB"/>
<stop offset="1" stop-color="#F2F7FF"/>
</linearGradient>
</defs>
</svg>
