<svg width="33" height="33" viewBox="0 0 33 33" fill="none" xmlns="http://www.w3.org/2000/svg">
<path d="M27.8649 28H4.93919C3.37162 28 2 26.8534 2 25.5431V11.4569C2 10.1466 3.37162 9 4.93919 9H28.0608C29.6284 9 31 10.1466 31 11.4569V25.5431C30.8041 26.8534 29.4324 28 27.8649 28ZM4.93919 9.81897C3.76351 9.81897 2.97973 10.6379 2.97973 11.4569V25.5431C2.97973 26.5259 3.95946 27.181 4.93919 27.181H28.0608C29.2365 27.181 30.0203 26.3621 30.0203 25.5431V11.4569C30.0203 10.4741 29.0405 9.81897 28.0608 9.81897H4.93919Z" fill="black"/>
<rect x="14" y="14" width="5" height="1" rx="0.5" fill="url(#paint0_linear_1945_1246)"/>
<rect x="12" y="18" width="9" height="1" rx="0.5" fill="url(#paint1_linear_1945_1246)"/>
<rect x="8" y="22" width="17" height="1" rx="0.5" fill="url(#paint2_linear_1945_1246)"/>
<circle cx="16.5" cy="3" r="0.5" fill="black"/>
<path d="M8 9.5L16.5 3L25 9.5" stroke="black" stroke-width="0.5"/>
<defs>
<linearGradient id="paint0_linear_1945_1246" x1="14.3554" y1="15.7849" x2="18.6446" y2="13.2151" gradientUnits="userSpaceOnUse">
<stop stop-color="white"/>
<stop offset="0.5" stop-color="#9370FA"/>
<stop offset="1" stop-color="#653EB3"/>
</linearGradient>
<linearGradient id="paint1_linear_1945_1246" x1="12.6386" y1="20.8456" x2="20.3614" y2="16.1544" gradientUnits="userSpaceOnUse">
<stop stop-color="white"/>
<stop offset="0.5" stop-color="#9370FA"/>
<stop offset="1" stop-color="#653EB3"/>
</linearGradient>
<linearGradient id="paint2_linear_1945_1246" x1="8.96899" y1="26.4424" x2="24.031" y2="18.5576" gradientUnits="userSpaceOnUse">
<stop stop-color="white"/>
<stop offset="0.5" stop-color="#9370FA"/>
<stop offset="1" stop-color="#653EB3"/>
</linearGradient>
</defs>
</svg>
