<svg width="33" height="33" viewBox="0 0 33 33" fill="none" xmlns="http://www.w3.org/2000/svg">
<path d="M30.7191 22.1483H29.0004C28.6793 18.9364 25.9693 16.4257 22.6711 16.4257C22.2325 16.4261 21.7953 16.4729 21.3666 16.5652C21.831 16.0852 22.2345 15.5498 22.5679 14.9711C22.6565 14.9788 22.7389 14.9956 22.8283 14.9956C25.0241 14.9956 26.8037 13.2177 26.8037 11.0202C26.8037 8.82355 25.0241 7.04472 22.8283 7.04472C22.739 7.04472 22.6534 7.06555 22.5679 7.06943C22.2686 6.54523 21.9053 6.06039 21.4982 5.61766C21.9263 5.51449 22.368 5.45068 22.8283 5.45068C25.9017 5.45068 28.3938 7.94297 28.3938 11.0164C28.3938 12.9353 27.424 14.6246 25.9446 15.6268C28.551 16.7429 30.4235 19.2137 30.7191 22.1483Z" fill="url(#paint0_linear_1774_1334)"/>
<path d="M17.2538 18.7014C22.0977 20.1725 25.6281 24.6717 25.6281 30H23.7551C23.7551 29.9445 23.7632 29.8873 23.7632 29.8301C23.7632 24.2363 19.233 19.7029 13.64 19.7029C8.05448 19.7029 3.52179 24.2363 3.52179 29.8301C3.52179 29.8873 3.52836 29.9445 3.52836 30H2C2 25.0499 5.0493 20.8162 9.36794 19.0608C6.51061 17.709 4.5314 14.8067 4.5314 11.4389C4.5314 6.78033 8.30851 3 12.9702 3C17.632 3 21.4091 6.77714 21.4091 11.4389C21.4123 14.5339 19.7362 17.2327 17.2538 18.7014ZM12.9744 4.6876C9.24628 4.6876 6.2231 7.71159 6.2231 11.4389C6.2231 15.1661 9.24628 18.1901 12.9744 18.1901C16.7016 18.1901 19.7248 15.1661 19.7248 11.4389C19.7248 7.71159 16.7016 4.6876 12.9744 4.6876Z" fill="black"/>
<defs>
<linearGradient id="paint0_linear_1774_1334" x1="21.3666" y1="8.60588" x2="30.7191" y2="18.9931" gradientUnits="userSpaceOnUse">
<stop stop-color="white"/>
<stop offset="0.5" stop-color="#9E70FA"/>
<stop offset="1" stop-color="#653EB3"/>
</linearGradient>
</defs>
</svg>
