<svg width="14" height="14" viewBox="0 0 14 14" fill="none" xmlns="http://www.w3.org/2000/svg">
<g clip-path="url(#clip0_1431_2293)">
<path d="M12.8981 2.80272L11.1754 1.11561C11.0346 0.969324 10.8391 0.885925 10.6367 0.885925C10.433 0.885925 10.2389 0.969324 10.0967 1.11561L8.82658 2.38026L8.28107 2.91346L3.76798 7.44296C3.66134 7.55643 3.58888 7.69725 3.56017 7.84901L2.99416 10.6189C2.97502 10.7187 3.00646 10.8213 3.07755 10.8937C3.15002 10.9648 3.25255 10.9963 3.35236 10.9771L6.14005 10.4357C6.29455 10.4111 6.43673 10.3387 6.54748 10.2279L12.8981 3.88417C13.0416 3.74061 13.1223 3.54647 13.1223 3.34276C13.1223 3.14042 13.0416 2.94628 12.8981 2.80272ZM3.88966 10.098L4.26017 8.25643L5.7422 9.733L3.88966 10.098ZM6.37248 9.30507L4.66759 7.62206L8.82658 3.4453L10.552 5.14882L6.37248 9.30507ZM11.0947 4.60468L9.38439 2.90936L10.6545 1.64061L12.3608 3.34413L11.0947 4.60468Z" fill="#653EB3"/>
<path d="M13.1223 7.88185C13.1223 7.6713 12.9432 7.49767 12.7313 7.49767C12.5193 7.49767 12.3484 7.66857 12.3484 7.88048V12.3498H1.64337V1.65021H7.27755C7.484 1.6379 7.64806 1.47384 7.66036 1.2674C7.64806 1.06095 7.484 0.896887 7.27755 0.884583H1.64337C1.22228 0.887317 0.880481 1.22775 0.877747 1.64884V12.3471C0.877747 12.7695 1.22091 13.1113 1.64337 13.1113H12.3567C12.559 13.1113 12.7545 13.0307 12.8981 12.8871C13.0416 12.7436 13.1223 12.5494 13.1223 12.3471V7.88185Z" fill="#653EB3"/>
</g>
<defs>
<clipPath id="clip0_1431_2293">
<rect width="14" height="14" fill="white"/>
</clipPath>
</defs>
</svg>
