<svg width="33" height="33" viewBox="0 0 33 33" fill="none" xmlns="http://www.w3.org/2000/svg">
<path d="M19.6228 9.28125H7.27034C6.70315 9.28125 6.24231 8.82041 6.24231 8.25C6.24231 7.67959 6.70315 7.21875 7.27034 7.21875H19.626C20.1932 7.21875 20.654 7.67959 20.654 8.25C20.654 8.82041 20.1932 9.28125 19.6228 9.28125ZM19.6228 15.4688H7.27034C6.70315 15.4688 6.24231 15.0079 6.24231 14.4375C6.24231 13.8671 6.70315 13.4062 7.27034 13.4062H19.626C20.1932 13.4062 20.654 13.8671 20.654 14.4375C20.654 15.0079 20.1932 15.4688 19.6228 15.4688ZM13.4482 21.6562H7.27034C6.70315 21.6562 6.24231 21.1954 6.24231 20.625C6.24231 20.0546 6.70315 19.5938 7.27034 19.5938H13.4482C14.0154 19.5938 14.4762 20.0546 14.4762 20.625C14.4762 21.1954 14.0154 21.6562 13.4482 21.6562Z" fill="black"/>
<path d="M23.9443 23.3998L23.332 23.0131C23.1386 23.3192 22.9324 23.6254 22.7133 23.9283C22.6327 23.8768 22.5489 23.8252 22.4619 23.7736V23.4868C22.7068 23.1903 22.9195 22.9003 23.1064 22.6199V21.8852H22.1074L22.6456 21.5661C22.4393 21.2729 22.1944 20.9603 21.9173 20.6348L21.2115 21.0344C21.4532 21.3405 21.6594 21.6273 21.8335 21.8852H20.7345V22.6812H22.1138C21.7046 23.2161 21.2083 23.7221 20.6185 24.1958C20.7217 24.4858 20.8151 24.7952 20.8957 25.1207C21.1503 24.8854 21.3887 24.6534 21.6143 24.4278V26.7804H22.4651V24.6309C22.7423 24.8403 23.0355 25.0659 23.3417 25.3076L23.8509 24.6695L23.2547 24.2731C23.4867 23.9928 23.7187 23.7027 23.9443 23.3998Z" fill="url(#paint0_linear_1799_1237)"/>
<path d="M26.8125 23.9058C26.3774 23.4771 25.894 23.0324 25.3591 22.5651L25.0594 22.8326V20.7347H24.1699V26.7739H25.0594V23.4095C25.4396 23.793 25.8006 24.1797 26.1454 24.5664L26.8125 23.9058Z" fill="url(#paint1_linear_1799_1237)"/>
<path d="M23.7381 18.5625C25.111 18.5625 26.4032 19.0975 27.3733 20.0739C28.3433 21.0472 28.8782 22.3427 28.8782 23.7188C28.8782 25.0948 28.3433 26.3903 27.3733 27.3636C26.4032 28.3368 25.111 28.875 23.7381 28.875C22.3653 28.875 21.073 28.34 20.103 27.3636C19.1329 26.3903 18.598 25.0948 18.598 23.7188C18.598 22.3427 19.1329 21.0472 20.103 20.0739C21.073 19.0975 22.3653 18.5625 23.7381 18.5625ZM23.7381 16.5C19.7614 16.5 16.5387 19.7323 16.5387 23.7188C16.5387 27.7052 19.7614 30.9375 23.7381 30.9375C27.7149 30.9375 30.9375 27.7052 30.9375 23.7188C30.9375 19.7323 27.7149 16.5 23.7381 16.5Z" fill="url(#paint2_linear_1799_1237)"/>
<path d="M5.14658 26.8125C4.57939 26.8125 4.11855 26.3517 4.11855 25.7812V5.15625C4.11855 4.58584 4.57939 4.125 5.14658 4.125H21.6981C22.2653 4.125 22.7262 4.58584 22.7262 5.15625V13.4062C22.7262 13.9767 23.187 14.4375 23.7542 14.4375C24.3214 14.4375 24.7822 13.9767 24.7822 13.4062V4.125C24.7822 2.9874 23.8605 2.0625 22.7262 2.0625H4.11855C2.98418 2.0625 2.0625 2.9874 2.0625 4.125V26.8125C2.0625 27.9501 2.98418 28.875 4.11855 28.875H15.5106C16.0778 28.875 16.5387 28.4142 16.5387 27.8438C16.5387 27.2733 16.0778 26.8125 15.5106 26.8125H5.14658Z" fill="black"/>
<defs>
<linearGradient id="paint0_linear_1799_1237" x1="21.0681" y1="26.7804" x2="26.3629" y2="20.6348" gradientUnits="userSpaceOnUse">
<stop stop-color="white"/>
<stop offset="0.5" stop-color="#9370FA"/>
<stop offset="1" stop-color="#653EB3"/>
</linearGradient>
<linearGradient id="paint1_linear_1799_1237" x1="21.0681" y1="26.7804" x2="26.3629" y2="20.6348" gradientUnits="userSpaceOnUse">
<stop stop-color="white"/>
<stop offset="0.5" stop-color="#9370FA"/>
<stop offset="1" stop-color="#653EB3"/>
</linearGradient>
<linearGradient id="paint2_linear_1799_1237" x1="16.5387" y1="30.4661" x2="30.9375" y2="16.9714" gradientUnits="userSpaceOnUse">
<stop stop-color="white"/>
<stop offset="0.5" stop-color="#9370FA"/>
<stop offset="1" stop-color="#653EB3"/>
</linearGradient>
</defs>
</svg>
