<svg width="659" height="394" viewBox="0 0 659 394" fill="none" xmlns="http://www.w3.org/2000/svg">
<g clip-path="url(#clip0_1918_75)">
<rect width="658.554" height="393.921" rx="10" fill="#F9F9F9"/>
<path fill-rule="evenodd" clip-rule="evenodd" d="M760.872 40.2795C771.327 40.2795 779.86 48.8593 779.86 59.3232V334.636C779.86 345.149 771.327 353.72 760.872 353.72H272.228C261.805 353.72 253.28 345.149 253.28 334.636V59.3232C253.28 48.8593 261.805 40.2795 272.228 40.2795H760.872Z" fill="url(#paint0_linear_1918_75)"/>
<path fill-rule="evenodd" clip-rule="evenodd" d="M782.14 334.397V59.5541C782.14 56.6479 781.632 53.9436 780.615 51.4411C779.567 48.8497 777.97 46.4763 775.833 44.329C773.679 42.1736 771.308 40.5671 768.703 39.5096C766.219 38.5005 763.525 38 760.63 38H272.47C269.599 38 266.937 38.4924 264.469 39.4854C261.856 40.5429 259.46 42.1574 257.299 44.3371C255.162 46.4844 253.565 48.8578 252.516 51.4491C251.5 53.9436 251 56.6479 251 59.5541V334.397C251 337.336 251.508 340.064 252.532 342.583C253.589 345.158 255.17 347.516 257.299 349.655C259.46 351.826 261.848 353.441 264.461 354.498C266.929 355.499 269.599 356 272.47 356H760.63C763.533 356 766.227 355.491 768.711 354.482V354.474C771.308 353.425 773.679 351.81 775.833 349.655C777.954 347.524 779.543 345.166 780.599 342.591C781.624 340.073 782.14 337.344 782.14 334.397ZM760.63 40.5429C771.074 40.5429 779.599 49.108 779.599 59.5541V334.397C779.599 344.892 771.074 353.449 760.63 353.449H272.47C262.058 353.449 253.541 344.892 253.541 334.397V59.5541C253.541 49.108 262.058 40.5429 272.47 40.5429H760.63Z" fill="#EFF1F6"/>
<path fill-rule="evenodd" clip-rule="evenodd" d="M680.699 187.312V205.385L657.907 226.064L635.107 205.385V187.312H680.699Z" fill="#FEE9E8"/>
<path fill-rule="evenodd" clip-rule="evenodd" d="M592.936 225.783V245.031C592.936 247.721 595.209 250 598.015 250H718.931C721.738 250 724.011 247.826 724.011 245.031V225.783C723.906 221.234 720.646 217.242 716.092 216.159L684.916 209.024C684.496 208.919 684.075 208.709 683.622 208.499L658.4 222.987L634.157 207.828C633.535 208.353 632.758 208.814 631.884 209.024L600.709 216.159C596.187 217.242 592.936 221.129 592.936 225.783Z" fill="#EDF1F6"/>
<path fill-rule="evenodd" clip-rule="evenodd" d="M635.107 209.015V191.871H680.699V194.746C680.699 194.746 663.877 218.488 635.107 209.015Z" fill="#F5DDDD"/>
<path fill-rule="evenodd" clip-rule="evenodd" d="M629.339 180.535L627.129 133.742H692.097L689.887 180.535C689.673 184.847 687.578 188.912 683.98 191.546L673.629 199.134C671 201.133 667.796 202.129 664.633 202.129H654.593C651.324 202.129 648.226 201.026 645.597 199.134L635.279 191.546C631.754 188.912 629.553 184.954 629.339 180.535Z" fill="#FFEEEE"/>
<path fill-rule="evenodd" clip-rule="evenodd" d="M661.323 251.14H648.785L650.338 229.484H659.731L661.323 251.14Z" fill="#C7CDE5"/>
<path fill-rule="evenodd" clip-rule="evenodd" d="M648.785 226.064H661.323V230.368C661.323 231.734 660.066 232.903 658.483 232.903H651.586C650.033 232.903 648.785 231.734 648.785 230.368V226.064Z" fill="#C7CDE5"/>
<path fill-rule="evenodd" clip-rule="evenodd" d="M634.282 206.158L657.333 226.134C657.333 226.134 650.852 229.338 642.931 235.605C641.321 236.909 638.837 236.36 637.955 234.571L627.129 211.565L630.6 206.571C631.369 205.402 633.092 205.195 634.282 206.158ZM680.393 206.158C681.583 205.195 683.338 205.402 684.075 206.571L687.538 211.565L676.712 234.571C675.838 236.36 673.354 236.909 671.736 235.605C663.823 229.338 657.333 226.134 657.333 226.134L680.393 206.158Z" fill="#E3E9F0"/>
<path fill-rule="evenodd" clip-rule="evenodd" d="M657.42 106.4C649.614 106.4 634.807 108.824 627.098 112.81L630.794 115.333C613.94 127.866 617.108 149.176 617.108 149.176C622.103 154.271 622.103 166.796 622.103 166.796L627.098 161.742C627.098 161.742 625.133 147.22 634.701 141.599C643.522 136.438 651.231 139.076 659.142 139.076C680.245 139.076 686.231 131.17 685.134 121.489C684.606 116.434 676.979 105.973 657.42 106.4Z" fill="#9499AD"/>
<path fill-rule="evenodd" clip-rule="evenodd" d="M625.533 138.713C625.533 138.713 622.877 128.456 630.769 117.785C613.932 129.94 617.11 150.772 617.11 150.772C622.134 155.669 622.134 167.935 622.134 167.935L627.158 163.03C627.158 163.03 625.181 148.834 634.699 143.41C643.538 138.266 651.218 140.962 659.069 140.962C662.467 140.962 665.547 140.715 668.161 140.3C651.855 140.818 642.337 128.767 625.533 138.713Z" fill="#9499AD"/>
<path fill-rule="evenodd" clip-rule="evenodd" d="M623.539 177.049L620.475 165.423C619.556 162.022 622.169 158.817 625.93 158.817C629.36 158.817 632.083 161.545 631.641 164.758L630.024 176.606C629.803 178.191 628.441 179.333 626.739 179.333C625.267 179.333 623.905 178.413 623.539 177.049Z" fill="#FFEEEE"/>
<path fill-rule="evenodd" clip-rule="evenodd" d="M378.491 89.2903H431.764C436.611 89.2903 440.549 93.2015 440.613 98.0562C440.67 103.008 436.691 107.048 431.764 107.048H378.491C373.645 107.048 369.706 103.137 369.642 98.282C369.586 93.3305 373.564 89.2903 378.491 89.2903ZM378.298 134.612H431.957C436.691 134.612 440.549 138.434 440.613 143.192C440.67 148.031 436.779 151.99 431.957 151.99H378.298C373.564 151.99 369.706 148.168 369.642 143.41C369.586 138.571 373.476 134.612 378.298 134.612ZM551.386 134.612H560.87C565.685 134.612 569.583 138.531 569.583 143.362C569.583 148.192 565.685 152.095 560.87 152.095H551.386C546.572 152.095 542.665 148.176 542.673 143.345C542.682 138.523 546.58 134.612 551.386 134.612ZM377.744 181.014H491.651C496.096 181.014 499.713 184.602 499.769 189.062C499.818 193.602 496.168 197.304 491.651 197.304H377.744C373.299 197.304 369.682 193.715 369.626 189.256C369.578 184.723 373.227 181.014 377.744 181.014ZM538.237 242.867H378.315C373.468 242.867 369.538 238.932 369.538 234.069C369.538 229.206 373.468 225.263 378.315 225.263H538.237C543.083 225.263 547.006 229.198 547.006 234.061C547.006 238.924 543.083 242.867 538.237 242.867ZM717.28 312.688H479.306C474.331 312.688 470.304 308.64 470.304 303.648C470.304 298.656 474.331 294.608 479.306 294.608H717.28C722.255 294.608 726.29 298.656 726.29 303.648C726.29 308.64 722.255 312.688 717.28 312.688Z" fill="#DAE7FD"/>
<path d="M338.194 89.2903H310.839C306.118 89.2903 302.29 93.1175 302.29 97.8387C302.29 102.56 306.118 106.387 310.839 106.387H338.194C342.915 106.387 346.742 102.56 346.742 97.8387C346.742 93.1175 342.915 89.2903 338.194 89.2903Z" fill="#DAE7FD"/>
<path d="M338.194 133.742H310.839C306.118 133.742 302.29 137.824 302.29 142.86C302.29 147.896 306.118 151.979 310.839 151.979H338.194C342.915 151.979 346.742 147.896 346.742 142.86C346.742 137.824 342.915 133.742 338.194 133.742Z" fill="#DAE7FD"/>
<path d="M338.194 180.473H310.839C306.118 180.473 302.29 184.556 302.29 189.591C302.29 194.627 306.118 198.71 310.839 198.71H338.194C342.915 198.71 346.742 194.627 346.742 189.591C346.742 184.556 342.915 180.473 338.194 180.473Z" fill="#DAE7FD"/>
<path d="M338.194 226.064H310.839C306.118 226.064 302.29 229.892 302.29 234.613C302.29 239.334 306.118 243.161 310.839 243.161H338.194C342.915 243.161 346.742 239.334 346.742 234.613C346.742 229.892 342.915 226.064 338.194 226.064Z" fill="#DAE7FD"/>
<path d="M416.594 303.57H311.083C306.227 303.57 302.29 307.142 302.29 311.548C302.29 315.955 306.227 319.527 311.083 319.527H416.594C421.45 319.527 425.387 315.955 425.387 311.548C425.387 307.142 421.45 303.57 416.594 303.57Z" fill="#DAE7FD"/>
<path d="M514.342 133.742H492.583C487.575 133.742 483.516 137.824 483.516 142.86C483.516 147.896 487.575 151.979 492.583 151.979H514.342C519.349 151.979 523.409 147.896 523.409 142.86C523.409 137.824 519.349 133.742 514.342 133.742Z" fill="#DAE7FD"/>
</g>
<defs>
<linearGradient id="paint0_linear_1918_75" x1="308.839" y1="189.05" x2="754.074" y2="196.978" gradientUnits="userSpaceOnUse">
<stop stop-color="#F2F7FF"/>
<stop offset="0.619128" stop-color="#FBF8FB"/>
<stop offset="1" stop-color="#F2F7FF"/>
</linearGradient>
<clipPath id="clip0_1918_75">
<rect width="658.554" height="393.921" rx="10" fill="white"/>
</clipPath>
</defs>
</svg>
