<svg width="33" height="33" viewBox="0 0 33 33" fill="none" xmlns="http://www.w3.org/2000/svg">
<path d="M20.8626 19.386H17.325V17.1469H20.8626C21.318 17.1469 21.6876 16.7773 21.6876 16.3219C21.6876 15.8665 21.318 15.4969 20.8626 15.4969H18.079L20.2504 13.4856C20.33 13.4119 20.3944 13.3234 20.4397 13.2249C20.485 13.1264 20.5105 13.0199 20.5146 12.9115C20.5188 12.8032 20.5015 12.6951 20.4638 12.5934C20.4261 12.4917 20.3687 12.3985 20.295 12.319C20.2214 12.2394 20.1328 12.1751 20.0343 12.1297C19.9358 12.0844 19.8293 12.0589 19.7209 12.0548C19.6126 12.0507 19.5045 12.0679 19.4028 12.1056C19.3011 12.1433 19.2079 12.2007 19.1284 12.2745L16.4752 14.733L13.8781 12.2811C13.7187 12.1311 13.5064 12.0506 13.2877 12.0571C13.069 12.0636 12.8618 12.1566 12.7116 12.3157C12.5617 12.4751 12.4811 12.6874 12.4876 12.9062C12.4941 13.1249 12.5871 13.3321 12.7462 13.4823L14.883 15.4986H12.1374C11.682 15.4986 11.3124 15.8682 11.3124 16.3236C11.3124 16.779 11.682 17.1486 12.1374 17.1486H15.675V19.3876H12.1374C11.682 19.3876 11.3124 19.7572 11.3124 20.2126C11.3124 20.668 11.682 21.0376 12.1374 21.0376H15.675V23.4598C15.675 23.9152 16.0446 24.2848 16.5 24.2848C16.9554 24.2848 17.325 23.9152 17.325 23.4598V21.0376H20.8626C21.318 21.0376 21.6876 20.668 21.6876 20.2126C21.6876 19.7572 21.318 19.386 20.8626 19.386Z" fill="url(#paint0_linear_1999_3124)"/>
<path d="M11.5 3V8" stroke="black" stroke-width="1.2" stroke-linecap="round"/>
<path d="M21.5 3V8" stroke="black" stroke-width="1.2" stroke-linecap="round"/>
<rect x="3.6" y="5.6" width="25.8" height="23.8" rx="2.4" stroke="black" stroke-width="1.2"/>
<defs>
<linearGradient id="paint0_linear_1999_3124" x1="11.3124" y1="20.8499" x2="21.6876" y2="15.4891" gradientUnits="userSpaceOnUse">
<stop stop-color="white"/>
<stop offset="0.5" stop-color="#9370FA"/>
<stop offset="1" stop-color="#653EB3"/>
</linearGradient>
</defs>
</svg>
