<svg width="33" height="33" viewBox="0 0 33 33" fill="none" xmlns="http://www.w3.org/2000/svg">
<path d="M30.2082 6.6001H3.14821C2.62308 6.6001 2.11946 6.8087 1.74814 7.18003C1.37682 7.55135 1.16821 8.05497 1.16821 8.5801V25.7401C1.16821 26.2652 1.37682 26.7688 1.74814 27.1402C2.11946 27.5115 2.62308 27.7201 3.14821 27.7201H30.2082C30.7333 27.7201 31.237 27.5115 31.6083 27.1402C31.9796 26.7688 32.1882 26.2652 32.1882 25.7401V8.5801C32.1882 8.05497 31.9796 7.55135 31.6083 7.18003C31.237 6.8087 30.7333 6.6001 30.2082 6.6001ZM3.14821 7.9201H30.2082C30.3833 7.9201 30.5511 7.98963 30.6749 8.11341C30.7987 8.23718 30.8682 8.40505 30.8682 8.5801V11.3323H2.48821V8.5801C2.48821 8.40505 2.55775 8.23718 2.68152 8.11341C2.8053 7.98963 2.97317 7.9201 3.14821 7.9201ZM30.2082 26.4001H3.14821C2.97317 26.4001 2.8053 26.3306 2.68152 26.2068C2.55775 26.083 2.48821 25.9151 2.48821 25.7401V12.6391H30.8682V25.7401C30.8682 25.9151 30.7987 26.083 30.6749 26.2068C30.5511 26.3306 30.3833 26.4001 30.2082 26.4001Z" fill="black"/>
<path d="M20 16.3C20 16.1343 20.1343 16 20.3 16H28.7C28.8657 16 29 16.1343 29 16.3V16.7C29 16.8657 28.8657 17 28.7 17H20.3C20.1343 17 20 16.8657 20 16.7V16.3Z" fill="url(#paint0_linear_1774_1359)"/>
<defs>
<linearGradient id="paint0_linear_1774_1359" x1="20" y1="16.5" x2="29" y2="16.5" gradientUnits="userSpaceOnUse">
<stop stop-color="white"/>
<stop offset="0.5" stop-color="#9E70FA"/>
<stop offset="1" stop-color="#653EB3"/>
</linearGradient>
</defs>
</svg>
