<svg width="33" height="33" viewBox="0 0 33 33" fill="none" xmlns="http://www.w3.org/2000/svg">
<path d="M24.0625 4.46881C25.0117 4.46881 25.7813 5.23837 25.7813 6.18761V26.8126C25.7813 27.7619 25.0117 28.5314 24.0625 28.5314H8.93761C7.98837 28.5314 7.21881 27.7619 7.21881 26.8126V6.18761C7.21881 5.23837 7.98837 4.46881 8.93761 4.46881H24.0625ZM8.93761 2.75016C7.03912 2.75016 5.5 4.28912 5.5 6.18761V26.8126C5.5 28.7111 7.03912 30.2501 8.93761 30.2501H24.0625C25.961 30.2501 27.5001 28.7111 27.5001 26.8126V6.18761C27.5001 4.28912 25.961 2.75 24.0625 2.75H8.93761V2.75016Z" fill="black"/>
<path d="M10.3125 25.7812C10.3125 25.5989 10.3849 25.424 10.5139 25.2951C10.6428 25.1661 10.8177 25.0937 11.0001 25.0937H21.9999C22.1823 25.0937 22.3572 25.1661 22.4861 25.2951C22.6151 25.424 22.6875 25.5989 22.6875 25.7812C22.6875 25.9636 22.6151 26.1385 22.4861 26.2674C22.3572 26.3963 22.1823 26.4688 21.9999 26.4688H11.0001C10.8177 26.4688 10.6428 26.3963 10.5139 26.2674C10.3849 26.1385 10.3125 25.9636 10.3125 25.7812ZM10.3125 23.375C10.3125 23.2847 10.3302 23.1953 10.3648 23.1119C10.3993 23.0285 10.45 22.9527 10.5138 22.8888C10.5777 22.825 10.6535 22.7743 10.7369 22.7398C10.8203 22.7052 10.9098 22.6875 11.0001 22.6875H17.8749C18.0573 22.6875 18.2321 22.7599 18.3611 22.8888C18.49 23.0178 18.5624 23.1926 18.5624 23.3749C18.5624 23.5573 18.49 23.7321 18.3611 23.8611C18.2321 23.99 18.0573 24.0624 17.8749 24.0624H11.0001C10.9098 24.0624 10.8204 24.0447 10.737 24.0101C10.6535 23.9756 10.5777 23.925 10.5139 23.8611C10.45 23.7973 10.3994 23.7215 10.3648 23.6381C10.3303 23.5547 10.3125 23.4653 10.3125 23.375ZM16.5 17.3164C16.3177 17.3164 16.1428 17.2439 16.0139 17.115C15.885 16.986 15.8126 16.8112 15.8126 16.6288V15.1679C15.8112 15.0768 15.8279 14.9862 15.8619 14.9016C15.8958 14.8169 15.9462 14.7399 16.0102 14.6749C16.0741 14.6099 16.1504 14.5583 16.2345 14.5231C16.3186 14.4879 16.4089 14.4697 16.5001 14.4697C16.5913 14.4697 16.6815 14.4879 16.7657 14.5231C16.8498 14.5583 16.926 14.6099 16.99 14.6749C17.054 14.7399 17.1044 14.8169 17.1383 14.9016C17.1722 14.9862 17.189 15.0768 17.1876 15.1679V16.6288C17.1876 16.8112 17.1151 16.9861 16.9862 17.115C16.8572 17.244 16.6824 17.3164 16.5 17.3164Z" fill="url(#paint0_linear_1774_1485)"/>
<path d="M20.4961 13.0624C20.5582 13.0624 20.6196 13.0746 20.677 13.0984C20.7343 13.1221 20.7864 13.157 20.8303 13.2009C20.8742 13.2448 20.909 13.2969 20.9327 13.3542C20.9565 13.4116 20.9687 13.473 20.9687 13.5351V18.4336C20.9687 18.559 20.9189 18.6792 20.8302 18.7678C20.7416 18.8564 20.6214 18.9062 20.4961 18.9062H12.5038C12.3785 18.9062 12.2583 18.8564 12.1697 18.7678C12.081 18.6792 12.0313 18.559 12.0313 18.4336V13.5351C12.0313 13.4098 12.081 13.2896 12.1697 13.2009C12.2583 13.1123 12.3785 13.0624 12.5038 13.0624H20.4961ZM12.5038 11.3438C11.2935 11.3438 10.3126 12.3248 10.3126 13.5351V18.4336C10.3126 19.6439 11.2935 20.625 12.5038 20.625H20.4961C21.7064 20.625 22.6875 19.6439 22.6875 18.4336V13.5351C22.6875 12.3248 21.7064 11.3438 20.4961 11.3438H12.5038Z" fill="black"/>
<path d="M17.7905 9.93646C18.0771 10.2186 18.2949 10.6757 18.2038 11.4099C18.179 11.6345 18.2437 11.8598 18.3838 12.0371C18.5239 12.2144 18.7282 12.3293 18.9524 12.3571C19.1767 12.3849 19.4028 12.3233 19.582 12.1856C19.7611 12.0478 19.8788 11.8451 19.9096 11.6213C20.0599 10.4077 19.699 9.40368 18.9966 8.71183C18.3162 8.04193 17.3872 7.73438 16.5 7.73438C15.6128 7.73438 14.6839 8.04177 14.0036 8.71183C13.3012 9.40368 12.9401 10.4077 13.0905 11.6213C13.1043 11.7333 13.1401 11.8415 13.1958 11.9396C13.2515 12.0378 13.326 12.124 13.415 12.1934C13.504 12.2628 13.6058 12.314 13.7146 12.344C13.8234 12.374 13.937 12.3824 14.049 12.3685C14.161 12.3546 14.2692 12.3188 14.3674 12.2631C14.4655 12.2074 14.5518 12.133 14.6212 12.0439C14.6905 11.9549 14.7417 11.8531 14.7718 11.7443C14.8018 11.6356 14.8101 11.5219 14.7962 11.4099C14.7052 10.6757 14.9231 10.2186 15.2096 9.93646C15.5181 9.6327 15.9884 9.45302 16.5 9.45302C17.0119 9.45302 17.4819 9.63253 17.7905 9.93646Z" fill="black"/>
<defs>
<linearGradient id="paint0_linear_1774_1485" x1="10.3125" y1="25.2925" x2="22.6875" y2="15.646" gradientUnits="userSpaceOnUse">
<stop stop-color="white"/>
<stop offset="0.5" stop-color="#9E70FA"/>
<stop offset="1" stop-color="#653EB3"/>
</linearGradient>
</defs>
</svg>
